<mxfile host="65bd71144e">
    <diagram id="aHQNcl1xRUHJbRoJpH2b" name="Page-1">
        <mxGraphModel dx="493" dy="440" grid="1" gridSize="10" guides="1" tooltips="1" connect="1" arrows="1" fold="1" page="1" pageScale="1" pageWidth="827" pageHeight="1169" math="0" shadow="0">
            <root>
                <mxCell id="0"/>
                <mxCell id="1" parent="0"/>
                <mxCell id="4" value="" style="ellipse;whiteSpace=wrap;html=1;aspect=fixed;fillColor=#9211ff;strokeWidth=2;strokeColor=none;" parent="1" vertex="1">
                    <mxGeometry x="145.75" y="23.75" width="367.5" height="367.5" as="geometry"/>
                </mxCell>
                <mxCell id="5" value="&lt;font style=&quot;font-size: 20px;&quot;&gt;&lt;b&gt;Batch&lt;/b&gt;&lt;/font&gt;" style="text;strokeColor=none;align=center;fillColor=none;html=1;verticalAlign=middle;whiteSpace=wrap;rounded=0;strokeWidth=2;direction=east;flipH=1;flipV=1;glass=0;horizontal=1;arcSize=0;shadow=0;rotation=225;" parent="1" vertex="1">
                    <mxGeometry x="140" y="290" width="160" height="60" as="geometry"/>
                </mxCell>
                <mxCell id="3" value="" style="ellipse;whiteSpace=wrap;html=1;aspect=fixed;fillColor=#000000;strokeColor=none;" parent="1" vertex="1">
                    <mxGeometry x="200" y="81" width="259" height="259" as="geometry"/>
                </mxCell>
                <mxCell id="2" value="" style="shape=image;verticalLabelPosition=bottom;verticalAlign=top;imageAspect=0;aspect=fixed;image=data:image/png,iVBORw0KGgoAAAANSUhEUgAABJMAAAIZCAIAAACd6ulXAAAACXBIWXMAAC4jAAAuIwF4pT92AAAHeGlUWHRYTUw6Y29tLmFkb2JlLnhtcAAAAAAAPD94cGFja2V0IGJlZ2luPSLvu78iIGlkPSJXNU0wTXBDZWhpSHpyZVN6TlRjemtjOWQiPz4gPHg6eG1wbWV0YSB4bWxuczp4PSJhZG9iZTpuczptZXRhLyIgeDp4bXB0az0iQWRvYmUgWE1QIENvcmUgNy4xLWMwMDAgNzkuZGFiYWNiYiwgMjAyMS8wNC8xNC0wMDozOTo0NCAgICAgICAgIj4gPHJkZjpSREYgeG1sbnM6cmRmPSJodHRwOi8vd3d3LnczLm9yZy8xOTk5LzAyLzIyLXJkZi1zeW50YXgtbnMjIj4gPHJkZjpEZXNjcmlwdGlvbiByZGY6YWJvdXQ9IiIgeG1sbnM6eG1wPSJodHRwOi8vbnMuYWRvYmUuY29tL3hhcC8xLjAvIiB4bWxuczp4bXBNTT0iaHR0cDovL25zLmFkb2JlLmNvbS94YXAvMS4wL21tLyIgeG1sbnM6c3RFdnQ9Imh0dHA6Ly9ucy5hZG9iZS5jb20veGFwLzEuMC9zVHlwZS9SZXNvdXJjZUV2ZW50IyIgeG1sbnM6c3RSZWY9Imh0dHA6Ly9ucy5hZG9iZS5jb20veGFwLzEuMC9zVHlwZS9SZXNvdXJjZVJlZiMiIHhtbG5zOmRjPSJodHRwOi8vcHVybC5vcmcvZGMvZWxlbWVudHMvMS4xLyIgeG1sbnM6cGhvdG9zaG9wPSJodHRwOi8vbnMuYWRvYmUuY29tL3Bob3Rvc2hvcC8xLjAvIiB4bXA6Q3JlYXRvclRvb2w9IkFkb2JlIFBob3Rvc2hvcCAyMi41IChNYWNpbnRvc2gpIiB4bXA6Q3JlYXRlRGF0ZT0iMjAyMS0xMS0yNVQxMToxNzozNSswMTowMCIgeG1wOk1ldGFkYXRhRGF0ZT0iMjAyMS0xMS0yNVQxMToxNzozNSswMTowMCIgeG1wOk1vZGlmeURhdGU9IjIwMjEtMTEtMjVUMTE6MTc6MzUrMDE6MDAiIHhtcE1NOkluc3RhbmNlSUQ9InhtcC5paWQ6NjA4MjQyNGMtZTVhOS00NDExLWFlMWItMGZhOGIyYTdmY2U2IiB4bXBNTTpEb2N1bWVudElEPSJhZG9iZTpkb2NpZDpwaG90b3Nob3A6ZWYwMWNmNTItZDdiZi1jNDQ2LWJhYTAtN2Y3YWUzN2Q1MGMwIiB4bXBNTTpPcmlnaW5hbERvY3VtZW50SUQ9InhtcC5kaWQ6OTA2YzllNDAtNzIyZi00YmYzLWFjNTgtYzVjYmQwYTk0NGUxIiBkYzpmb3JtYXQ9ImltYWdlL3BuZyIgcGhvdG9zaG9wOkNvbG9yTW9kZT0iMyIgcGhvdG9zaG9wOklDQ1Byb2ZpbGU9InNSR0IgSUVDNjE5NjYtMi4xIj4gPHhtcE1NOkhpc3Rvcnk+IDxyZGY6U2VxPiA8cmRmOmxpIHN0RXZ0OmFjdGlvbj0iY3JlYXRlZCIgc3RFdnQ6aW5zdGFuY2VJRD0ieG1wLmlpZDo5MDZjOWU0MC03MjJmLTRiZjMtYWM1OC1jNWNiZDBhOTQ0ZTEiIHN0RXZ0OndoZW49IjIwMjEtMTEtMjVUMTE6MTc6MzUrMDE6MDAiIHN0RXZ0OnNvZnR3YXJlQWdlbnQ9IkFkb2JlIFBob3Rvc2hvcCAyMi41IChNYWNpbnRvc2gpIi8+IDxyZGY6bGkgc3RFdnQ6YWN0aW9uPSJzYXZlZCIgc3RFdnQ6aW5zdGFuY2VJRD0ieG1wLmlpZDo2MDgyNDI0Yy1lNWE5LTQ0MTEtYWUxYi0wZmE4YjJhN2ZjZTYiIHN0RXZ0OndoZW49IjIwMjEtMTEtMjVUMTE6MTc6MzUrMDE6MDAiIHN0RXZ0OnNvZnR3YXJlQWdlbnQ9IkFkb2JlIFBob3Rvc2hvcCAyMi41IChNYWNpbnRvc2gpIiBzdEV2dDpjaGFuZ2VkPSIvIi8+IDwvcmRmOlNlcT4gPC94bXBNTTpIaXN0b3J5PiA8eG1wTU06SW5ncmVkaWVudHM+IDxyZGY6QmFnPiA8cmRmOmxpIHN0UmVmOmxpbmtGb3JtPSJSZWZlcmVuY2VTdHJlYW0iIHN0UmVmOmZpbGVQYXRoPSJjbG91ZC1hc3NldDovL2NjLWFwaS1zdG9yYWdlLmFkb2JlLmlvL2Fzc2V0cy9hZG9iZS1saWJyYXJpZXMvMzU0ZDk1ZGItMjU1Yi00NGI5LWE5NzgtMDFiNTRiYTAzNGRjO25vZGU9YTBmN2FjNzUtZDk4Yi00ZDM0LTg3OGUtMWI4OGE3MWZmN2EyIiBzdFJlZjpEb2N1bWVudElEPSJ1dWlkOmU4ZjhhNzJlLTkyYzgtMzE0MC1iNDRmLTk1NzI0Y2U0OWJmMiIvPiA8L3JkZjpCYWc+IDwveG1wTU06SW5ncmVkaWVudHM+IDwvcmRmOkRlc2NyaXB0aW9uPiA8L3JkZjpSREY+IDwveDp4bXBtZXRhPiA8P3hwYWNrZXQgZW5kPSJyIj8+AcVi0wAAeFlJREFUeJzt3Wd8VGX6//EzPY00AgmEXqX33kNRlKqoi3RFmo21sf7UVdG17IqLBZCiNCmiCCgIAtJ77x2kJSEkhPRk+v8B+2ezkZJMrpkzM/m8X/PAHGa+57rPIJlrzjn3rSgAAAAAAAAAAAAAAAAAAAAAAAAAAAAAAAAAAAAAAAAAAAAAAAAAAAAAAAAAAAAAAAAAAAAAAAAAAAAAAAAAAAAAAAAAAAAAAAAAAAAAAAAAAAAAAAAAAAAAAAAAAAAAAAAAAAAAAAAAAAAAAAAAAAAAAAAAAAAAAAAAAAAAAAAAAAAAAAAAAAAAAAAAAAAAAAAAAAAAAAAAAAAAAAAAAAAAAAAAAAAAAAAAAAAAAAAAAAAAAAAAAAAAAAAAAAAAAAAAAAAAAAAAAAAAAAAAAAAAAAAAAAAAAAAAAAAAAAAAAAAAAAAAAAAAAAAAAAAAAAAAAAAAAAAAAAAAAAAAAAAAAAAAAAAAAAAAAAAAAAAAAAAAAAAAAAAAAAAAAAAAAAAAAAAAAAAAAAAAAAAAAAAAAAAAAAAAAAAAAAAAAAAAAAAAAAAAAAAAAAAAAAAAAAAAAAAAAAAAAAAAAAAAAAAAAAAAAAAAAAAAAAAAAAAAAAAAAAAAAAAAAAAAAAAAAAAAAAAAAAAAAAAAAAAAAAAAAAAAAAAAAAAAAAAAAAAAAAAAAAAAAAAAAAAAAAAAAAAAAAAAAAAAAAAAAAAAAAAAAAAAAAAAAAAAAAAAAAAAAAAAAAAAAAAAAAAAAAAAAAAAAAAAAAAAAAAAAAAAAAAAAAAAAAAAAAAAAAAAAAAAAAAAAAAAAAAAAAAAAAAAAAAAAAAAAAAAAAAAAAAAAAAAAAAAAAAAAAAAAAAAAAAAAAAAAAAAAAAAAAAAAAAAAAAAAAAAAAAAAAAAAAAAAAAAAAAAAAAAAAAAAAAAAAAAAAAAAAAAAAAAAAAAAAAAAAAAAAAAAAAAAAAAAAAAAAAAAAAAAAAAAAAAAAAAAAAAAAAqMGqC1C4BAAAAAHBPz4Wsq67voHYVAPAferULAAAA8Dqxuka1Dd2sSt75rK1q1wIAiqIoWrULAAAA8DpdA15XFKWe4ZFo3QNq1wIAikLnBgAAUECEtlJT45OKomgUTZzpFbXLAQBFoXMDAAAooLPpJa2iu/XfLU1DQ7Ux6tYDAAr3uQEAAOQXqAlvaxp1+0edYuxoemFl7psqloTiKFWqVI0aNSpXrlyuXLmKFStGRkaGhYWFh4cHBgbefo7FYsnJybFYLMnJyQkJCcnJyfHx8efOnTt//rzNZlOxeCA/OjcAAID/amcabdKE5N/S3jR2Xd5HZmeWWiWhSKpVq9a6deumTZs2bNiwQYMGMTGunzK12Wxnz549ceLEnj17tm/fvn///ry8PMFSgSLRqF0AAACAt9ApxvfCLoZqyxXYvjTnpc3mL1QpCYVRuXLl7t27d+/evWPHjsVp1e7NarXu3bt31apVq1atOnz4sJv2AtwNnZtXaNCgwdatTDpcKAsXLhw3bpzaVfzXggULHnnkEY/tLi0t7dZ/3LqoQ1EUq9WalZWVnp6emZmZmZmZlZWVmZmZlpaWkpKSkpKSmJiYmJh448YNj1Xotfi/rJiOHj3aoYMrC1vpdDqTySRYic1mu/WXH25iMBgMBoNgoMVi8aHrzVobRzwV/O2ft6c6Lk1Mr+FQfGYgJUSDBg0GDBjQr1+/hg0benjXV65cWbp06dy5cw8dOuThXaPE4mpJr6DT6cLCwtSuwjcEBQWpXcL/CA4O9uR759q+cnNzL1++fPHixTNnzpw9e/b06dNHjhy5du2aeHnejP/LiqlUqVKuvdDpdOp1kr9rdFqd1Wp1Op2CmcgvwBSg0Uh+sZvn8JmryzSKpkvAnWeSjNRWbmwccMCy2MMl4Y5iYmKGDRs2aNCgBg0aqFVDxYoVx48fP378+MOHD8+dO/fbb79NT09XqxiUEHRugP8LDAysXbt27dq1H3zwwdsbr1+/fujQod27d+/YsWPnzp38voGbOBwOh8Oh10v+ujEYDJx2cxODwaDT6QQD7Xa7w+EQDHSruoaHy+nq3e1Puwa8Suemuk6dOj333HP9+vWTPTNcHI0aNfrss88mTpw4Y8aML7744tKlS2pXBL9F5waUUGXLlu3Ro0ePHj0URXE6nYcOHVq7du1vv/22fft2PhNDlsVqMRiNgoEBpgD+lrpJgClAo5VcMciSlyuY5m5xAa/e408r6prV0nc9Y/vdY/XgNq1W+9hjj7322mstWrRQu5Y7CwkJefnll1966aX58+e/8847ly9fVrsi+CHWcwOgaDSaJk2aTJgwYcOGDcnJyfPnz+/Tp0/+6ZKB4rBarRqNRqfVST2MRpPsSTzcotPpTKYAwXdKq9H6UI9dSde8pr7zvZ8Td5drKeE+Go2mX79+R44cWbJkide2bbfpdLrhw4efPn36008/jYyMVLsc+Bs6NwD/IzQ0dPDgwStWrEhKSpo+fbr3/5qE93M6nRazWSsqMNC7bnn1D4EBgbJvk9li9qE7ErsGvHbf59Q19Cynq++BYnBL69atd+7cuWzZsnr17noVqxcKCAh45ZVXzp49O2LECNm7RlHC0bkBuLNSpUqNGjVqz549hw8ffuaZZ4yiV7uhpMnNy5VtCYICg/g8JEuj0QQFBcu+TXm+c6lkaW3VRsbHCvPMrve8ohJSypQpM3/+/J07d7Zq1UrtWlwUGRn57bffbtiwoVatWmrXAj9B5wbgPho2bDhr1qxLly793//9H9MzwjV2u91isWg1WqmHTqsLDOCCXkkBpgC9Ti/4HtlsNh9aDKBLwMtapVBTszQzPhWmjXV3PSXc8OHDT506NXjwYLULEdC5c+fDhw+PGTNG7ULgD+jcABRKTEzMP/7xj/Pnz7/yyivcAgcX5ObmyJ7PCQlxcaEC3FFISCnZNygnJ1vtMRVWkCaytXFEIZ+sUwydTS+5tZ6SrEyZMsuXL589e7Y/3SQWEBAwbdq0H3/8MSIiQu1a4Nvo3AAUQenSpT/99NOzZ88+/vjjatcCH5Obl+twODQardTDZAwwGriIV4ZBbwgwBQq+O06nM9d3LpXsYBpn1AQX/vltTaNMGr44kBcXF3fkyJG+ffuqXYhbPPbYYwcPHvT8iuHwJ3RuAIosNjZ2yZIlP/30U0xMjNq1wJfk5OboRIWW4vJdGaVKhcq+NTm5Ob4yN4lBE9Ax4IUivSRQE9bONNpN9ZRMGo3mb3/727p16/z710rlypW3b9/eq1cvtQuBr6JzA+Ci/v37Hz9+vH///moXAp+RmZWhUTSCd1KFBJfSii4+VjJpNJpSIaGC74tWo83KylR7WIXVwjiklKZsUV/V2fSSTvGWlaB9nclkWrBgwUcffVQS/ncOCQlZsWLFSy9xwS1c4f//hwBwn8jIyJ9++mnSpEkGA59gcH92uz0nT/JuN71eHxLMRWvFFRwUYtAbBN+X3Lxcq82q9rAKRaNo40yuLNEWrq3Q1PikeD0lUGRk5O+//z5w4EC1C/EcrVY7efLkv//972oXAt9D5waguF5++eXNmzdHR0erXQh8QEZmuuDNVBqNNjyUO/6LKzwsQvZNychMV3tMhVXf0LusrrZrr+0a8JpGYWmKYomOjt68eXO7du3ULkQF77333scff6x2FfAxdG4ABLRp02bXrl0PPPCA2oXA2+Xm5thsVsHTO4GBQSZTgNrD8mEmoyk4KETwHbHb7dk5WWoPq7AKs/r23ZTXNaxt6C5YTElToUKF7du3169fclc2nzBhAs0bioTODYCMKlWq7Nixo0OHDmoXAm+XnpEme0tVZHhptcfkw8LDImXfjvTMNLXHVFhV9K2r6Yt1tqeryfXGr4QrU6bM6tWrq1evrnYhKpswYcLLL7+sdhXwGXRuAMRERET89ttvcXFxahcCr5aekaYoGq1WJ/UID43UaQu1hjIK0Gg0kWGlBd8LjUabnn5T7WEVVnFOuN1S29AtVtdIpJgSJTg4+LfffivJZ9vymzRp0qBBg9SuAr6Bzg2ApMDAwJUrV9K84R7sDntmVrrgSR69Th/G3W4uCQ+N0OsNgu9FZlaGzW5Te1iFUkZbs6FBYGrcrgGvFz+kRNHpdIsWLWrSpInahXiR2bNnd+rUSe0q4APo3AAIu9W8cdkk7uHGzRTZK/SiIos8qzsURSkdUUb2jbiZfkPtMRVWl4C/iswv0tT4ZIS2UvFzSo6PPvqod+/ealfhXQwGw/fffx8bG6t2IfB2erULAOCHAgMDV6xY0a5du5MnT6pdC7xRbl5Orjk3KDBYKjAoMDgoMDgnN1sqsCQIMAWGBIcKBuaZc7OyfWMZt2BNVCvjCJEoraLrbHppWa4rSwuUQP3793/tNTVvDszIyDh//vzFixevXLly8+bNnJwci8WiKEpwcHBQUFBUVFR0dHTlypVr1aoVFBTkycKio6OXLl3asWPHW/UAd0TnBsAtIiIiVq9e3aZNm8TERLVrgTe6cTM5JEhyKbYykdGX4i8IBvq9MqWjtRrJS29upCYLprlVp4AXDBqxKUnbmkatyXs/15kmFeivKleuPGfOHM/v9/z587/++uvOnTv37dt37tw5p9NZmFdVqlSpZcuWrVq16t69e6NGnribsVWrVp9++umLL77ogX3BR9G5AXCXypUr//TTT506deIbRPzZzfQbFctV0evEfg2VjigTf+2yr9xkpTqtVhsVUVawc3M4HalpKVJpbmXQBHYwPScYaNKEtDeNWZfH9O73otFo5syZExoqeZr33o4fPz537txly5adO3fOhZdfvnz58uXLP/74o6Io5cuX79ev37Bhw1q2bCld5v944YUXfvnll3Xr1rl1L/BddG6AV/jtt9/+vKhLQEBAQMB/vxUODw83mUyBgYGhoaGBgYGRkZGlS5eOioqKiooqU6ZM2bLeeJ9P69at+QYRd+RwOFLTUmLKiN3XoVV0pSPKJqUkSAX6t9LhZQx6o2Bgyo1ku8MuGOg+rY0jgjXCK0l0Mr24Ie8zu8K3VHf1wgsvdO7c2QM7slqtc+fOnT59+r59+6QyExISpk6dOnXq1Hr16r388stDhgwxGAxS4QXMnj27fv36aWlpbsqHT6Nz8wqHDh3SaATuk/Zaw4cPnz17ttpVeLVr165t2rSpOAkBAQGV/r9atWrVr1+/fv36lStXFirQdS+88ML27du///57tQsRc/jw4caNG6tdhT+4fuNaubIVBQOjS5ejcyuksqXLaUQvlUy+cU0wzX00irZLgPzyWaHaci2Mg3ZZ+E13Z+XKlfvggw/cvZfc3NypU6d+9tlnCQnu+nfg+PHjzzzzzDvvvDNx4sThw4e748NbbGzsF198MXToUPFk+AE6N8BP5OXlnTlz5syZM/k3hoSENGjQoG3btu3bt2/fvn1UVJQqtU2fPn379u1Xr15VZe/wWnnm3Mys9LBSYhP6BweVKhUclpmdLhXor4ICgkNDwgUDs7IzsnOzBAPdp5Hx0SitW1Z/jgt4dbdljlMp1D1UJc2kSZNKlZK8r/XPFi9ePGHChMuXL7t1L7dcvXr16aef/vLLL2fOnNmsWTPx/CFDhsyZM2fDhg3iyfB1rAoA+LOsrKydO3dOmjSpf//+ZcuWrVOnzgsvvLBmzRoP33gWFhb27bff+veJZbgmKSVBdlb66Kjyao/JB8SUiZU97Ek3fGYioq6mV92UHKOrW9fwsJvCfVrz5s0HDhzovvwLFy506tRp4MCBnmnbbjt48GDr1q3ffPNNu13+OuEvvvhCr+f8CgqicwNKCqfTeerUqa+++qpnz55ly5YdOnTomjVrCjnFVvF179595MiRntkXfEhqeorVZtVotFKPsqXLCc564pd0Wl1MVKzgMbfb7Sk3k9QeVqFU07evrG/lvvy4AHe1hT7to48+cl/4N99806hRoy1btrhvF/dgs9k+/PDDzp07i8+iXK9ePW4Rx5/RuQElUXp6+vz583v27Fm5cuWJEyempHhiRrh//vOfal2uCa/ldDplT7vptfroKFazvZcykTF6nUHwmF+/kehwONQeVqF0C5jg1vya+s6VdM3duguf065du27durkjOTc3d9CgQSNHjszKUvlK3W3btrVq1ero0aOCmVlZWe44lQdfR+cGlGhXrlx55513KlWqNHbs2CtXrrh1X+Hh4f/4xz/cugv4omsp8RqNVqvVST1iy1ZSe0xeLTa6suDR1mp1icm+cQtrtO6BeoZH3L2XrgGvu3sXvmXCBLd0yykpKV26dFm4cKE7wl1w5cqVDh067Nmzp/hRdrt9+vTpNWrU+Pzzz4ufBj9D5wZAyc3N/frrr2vVqvXaa69lZGS4b0fPPvusO27mhk8zW/JS05K1ilbqERIYGl4qUu1heamQoNCw4AjBo52WkZprzlF7WIUSZ3pFo7j9bttGxkdLa6u6ey++olatWr169RKPjY+P79Sp0+7du8WTiyM9Pb1Hjx7FnCZ61apVDRs2HDNmTFKSb1yBDA+jcwPwH3l5eZ9++mmtWrUWL17spl1oNBpOu+HP4q9fFrztSqPRxpZVfz0M7xRbtrLsoY5PuqT2mAolVBvTwjTEAzvSKjp3rDrgo5599lnxualSUlK6d+9+4sQJ2VgR6enp/fr1O3LkiAuvPXToULdu3Xr16uWdQ4OXoHMD8D+SkpIGDhz4xBNPuGkZ0AcffLB169buSIbvSk1PzjPnCrYTMVEVZJeZ9g86nb58mUqCx9liNaek+caZgY6mF/SKyTP7csdK377IaDQOGzZMNtNsNvfp0+fkyZOysYLS09Mffvjh+Pj4wr8kISFhxIgRzZo1+/33391XGPwDnRuAO/jhhx+aNm166NAhd4R/+OGH7oiFT7uadFFwzgydVl++DHe7FVSudAWD3ih4nBOuX/bY/LTFYdKEtDeN9djujJpgT+7Oa3Xv3r1MmTKymWPGjNm5c6dsprj4+PhHH320MKvvZGdn//3vf69Zs+acOXN8ZZofqIvODcCd/fHHH+3atVu9erV4cpcuXbjbDQUkJF92Op2CTUWlcm5ZbdmnVSpXXfAIaxTN1esX1R5TobQyjgjSiC34XhgdA14waAI8uUcv9Oijj8oGLl68eM6cObKZbrJnz56XXnrpHk+w2+0zZ86sUaPG+++/n5PjG3eKwhvQuQG4q5ycnN69e7tj8q7x48eLZ8KnWW2WpBsJWo1O6lEqMKx0WFm1h+VFwkIiwkNKCx7h5JvXzJY8tYd1f1pFHxfwiod3WkpTtoXRE7fVeS2dTte/f3/BwOvXrz///POCge729ddf//zzz3f8ozVr1jRu3HjUqFHXrl3zcFXwdXRuAO7FbrcPHTr0br9+XPbkk09GR0fLZsLXXb52XnbyjEoxnHb7r0oxNWQP7+Vr59UeU6E0Ng6I1KowY02c6VVNCf6U1axZs4gIyfOcEyZMuHHjhmCgB4wcObLAcqlHjx598MEHe/bseezYMbWqgk8ruf+mACgku93+l7/8Ze/evYKZBoPhmWeeEQyEH0jLvJGZnS44YX35qMpGg4cmpfByep2hQtmqgsc2Ny/bV+Ym6Rrwqir7LaurVd/QW5VdewPZ1bdPnjw5b948wUDPSE5Ovn2BSWJi4siRIxs3brx27VpVi4Jvo3MDcH+5ubl9+/Yt8N1hMQ0ZUqIvJcIdXUw8K3hSSKfVVyxbTe0xeYUKZasadEbBY3sx8azaYyqUWvq4ijrV7qrtGvCaWrtWXceOHQXT3n33XR+dwGPBggUrVqx49913a9as+c033/joKOA96NwAFEpiYuLTTz8tGPjAAw80b95cMBB+ID75ot1uF2wwqpSrrfaYvELVcrUFj6rT6bySdEHtMRVKnEon3G6ppm9XRV9CF0ERnIYqISHhp59+kkrzvH79+r333nvZ2dlqFwJ/QOcGoLB++eWX+fPnCwY+9dRTgmnwA3a77cr1C4IX9YUGhZcJL6f2sFQWUSoqPKS04FGNT75ktd1/xnPVldPVr2voqW4NJfO0W6VKlaKioqTS5s2bZ7PZpNIAn0bnBqAIJkyYkJmZKZXWp08fqSj4jT8STgvOf6jV6KqVr6P2mFRWrXwd2UN6MeG02mMqFM9PKflnDQ39y2hrql2FpzVo0EAw7fvvvxdMA3wanRuAIkhMTPzss8+k0qpXr167Nhez4X9k5qSlpCcJXtoXW6aqyRio9rBUY9AbK5WVnFUyLSs1NTNZ7WHdX5g2trlxkNpVKBpF0yXgr2pX4Wk1atSQikpMTDx8+LBUGuDr6NwAFM3kyZPT09Ol0h5++GGpKPiNCwknNYpW6qHT6KvGlNwvCCpH19TrjILH80LCSbXHVCidTS/pFIPaVSiKorQyjgjWiF066BMEO7etW7c6nU6pNMDX0bkBKJq0tLQ5c+ZIpXXt2lUqCn4jPvkPi9UseJqoevl6ao9JNdXL1xM8kna77XLSObXHdH8mTam2plFqV/EfBk1Ap4AX1K7Co8qVE7u5dP/+/VJRgB+gcwNQZDNmzJCKat26tUajkUqDf3A4HRcSTgrOqFEqMDw6ooLaw1JBVFhMREgZwSP5R+Jpu8MH5opoZxoVqAlTu4r/6mB6zqApQZfsxsTESEWdOnVKKgrwA3RuAIrsxIkT+/btE4kqXbp0rVq1RKLgTy4knlAUjeA1fjVjG6o9JhVUL19f8BhqFO35hONqj+n+dIqhs2m82lX8j2BN6dbGEWpX4TmCE0tevXpVKgrwA3RuAFyxfPlyqahWrVpJRcFvZOdlJt64LDgdYsUyNQKNwWoPy6OMelPV6AcEj2FyWmJGzk21h3V/TY1PhmtlTrH+nvevXKfMbb1dAl7WlJgPXQEBAVJRqampUlGAHygp/4gAkLVy5UqpqPr160tFwZ+ciz8qeIOWTquvXr5k/U2rVq6uXmcUPIZn44+oPaZCkVpCzaaYN+R9utM8UyQtSlu9kfFRkSjvFxQUJBWVlpYmFQX4ATo3AK44evSo1AyTDzzwgEgO/ExC6sXs3EzJCybLNyxRN1XWLN9I8OjlWXKvJPvA3CQPGHqU18lcGbvX/F2m8/pm85cOxS4S2NX0qkiO9zMajVJRgYEl6P5A4L7o3AC4wuFw7NixQySqbt26IjnwM06n82z8EcHZNUIDI8pFVFZ7WB4SHV4hMqSs4NE7n3DM4XSoPaz762qSOeGmKMom82RFUW46Lh+2LBUJrKxvVU3fXiSq5AgL86KZZgDV0bkBcJHU6qiVK1cuUWdCUHjnEo86nU7BE0cPVGiq9pg8pHZsE8HjpiiaM/E+sBpyrK5RbUM3kajT1vWJ9mO3/nuj+d8imYqidAuYIBXlzbKysqSiwsPDpaIAP0DnBsBFJ0/KLMir1+vLlCkjEgU/k2fJuZh0WrADqVSmdpApRO1huZ3JEFg1uq7gcbuafD47L0PtYd2f1B1uiqJsNH92+78v2nZdtO0Sia1neCRa5//Xh5vNZqmo2rVrS0UBfoDODYCLzpw5IxUluPgP/Mzp+IOCsyPqNPpa5ZuoPSa3q1muoV5rFDxup+MPqj2m+4vQVmpqfFIk6rr99Enrmvxb8jdyxaFRNHGmV0SivJnghJCNGjWSigL8AJ0bABclJiZKRZUrV04qCn4mKe1KWlaK5AWTsc38/urcB2KbCx6xrNz0+NQLao/p/jqbXtIqepGojeZ/OxVn/i2HLctuOi6LhLcwDQnV+vl3VYKdW/PmzaWiAD9A5wbARUlJSVJRzB6Gezh5dZ9gH1IqIKJC6Rpqj8mNYsIrRwSXFTxiJ6/udzqd99+xqgI14W1No0SicpypeyzzCmx0KLbN5i9F8vWKqaPpBZEor3XlyhWpqHbt2gmu6w34Ojo3AC7Ky8vLyckRiRJc/Af+5+y1I3a7TbAVqRPbQu0xuVHdCi0Fj5XD4TiT4AOXSrYzjTJpZO5g3Gb+2urM/fP2neaZFme2yC7am8ZKVeudLl+WOT+pKIpWq+3bt69UGuDr6NwAuM5qtYrkCC7+A/9jtZnPJh4W7EaqRNUJNoWqPSy3CDAEVY9uIHis/rh+Is8q8wWN++gUY2fTeJEou2Ldap5yxz/KdabvsnwrspcgTUQr4wiRKO907pzk0n/PPPOMYBrg0+jcALguN/cO30wD4k5c3SPYjWg1+rqxLdUek1vULt9MpzEIHqsTV/eoPab7a2EcFKqVuVf2oGVJuiPhbn+6MW9ygfvfXBYX8IrUXXle6NixY4Jpbdq0adeunWAg4Lvo3AC4zu9neoCXuJF1LSntilbRST3qxrbSavztN6BG0dSLbS14lG5mXb+WdkntYd2HRtF0CRCbrXFj3r3mkLzhuHDM+rPIjiK1lRsbB4hEeaGTJ09aLBbBwHfeeUcwDfBd/vZ7C4AnBQQEqF0CSorjV3cJnkoKMUVUKu1vy2qVj6gWERQteJSOX5VZxMyt6hh6ltPVE4k6b9tyxX7g3s/ZcM/Wrki6BrwqFeVtrFbr/v37BQO7d+/+6KOPCgYCPorODYDr9HqZq31u3rwpkgM/dv76EbM1V7AtqV+hrdpjElYvto3g8bHZracT79PGeAPJ1bfz/n3f55y3bblql5mypaKuWS19nEiUF9q+fbts4OTJk8PDw2UzAZ9D5wbARQEBAcHBwSJRaWlpIjnwY3aH7USC5N1uVaLqhQSEqz0sMYHGkJrRTQSPz+nE/Va7We1h3UclXfOa+s4iUTccF44W7krIe19RWSRx/nva7bfffpMNrFix4uzZs7lEHyUcnRsAF5UtW1Yq6saNG1JR8GPHru7QKBqtohV56BRdvfJt1B6TmLrlW+s1BqmDo1W0R68KnzNxB8HOZ1Pe507FUZhnHrjnLCZFUtfQs5yuvkiUt9m2bZv4FFb9+vV75RWxexoBX0TnBsBF5crJTOamiC7qDT+WkXvj8o3TiqKVejSIbe8f85RoFE2D2PaCRyYh7Y8bWYlqD+s+SmurSk3yUaQZ/+2KZat5qsh+FUWJk5texavk5eX98ssv4rH/+te/hgwZIh4L+Ap/+I0FQBW1atUSybFYLMnJySJR8HtHrm4TnDuxlCmyalQDtcckoGJk7YjAaMEjc+TqNrXHdH9dAl7WKjqRqJ3mWWZnVuGfv/0uq3W7oLlxUJg2ViTK2yxZssQdsd98802/fv3ckQx4Pzo3AC6qWbOmSM7ly5dFclAS/JFyLCs3TePUSj0axnZUe0wCGsZ2FDwmuebsc9dlJuFwnyBNZGuhxawdin2L+csivSTbeWOvZb7I3nWKobPpJZEob7Ny5Up3XAlvMBiWLl369NNPiycD3o/ODYCLGjVqJJJz6tQpkRyUBE6n42j8NsF5OKpGNggNKK32sIolyFiqZpmmgsfkeMIOu8Om9rDuo71prFEjM0PSYctPqY4iL1u30Xz/iSgLqa1plElTSirNe5jN5m+/Lew1qEWi1Wq/+eabd999V6vlcyxKFv7GA3BR69atRXLOnj0rkoMS4mjCNqfDKXV+SavoGpb37dNuDcp10CkGqQOiODVH4reoPab7MGgCOgW8KJW2yaUeLMl+6oR1tUgBgZqwdqZRIlHeZsqUKXa73U3h77zzzs8//xwREeGmfMAL0bkBcEWNGjWk5pY8dOiQSA5KiGxL+tnkgxqNVurRoHxHrUbmdinP0yiahrGdBY/GxRvH0/NS1B7WfbQwDimlkfn356Jt1x+2na691rWW7446m8brFINUmve4dOnS4sWL3Zf/yCOPHD58OC7Ob5fFAwqgcwPgiocfflgq6sABH1jtF17l0NWNilMr9QgxRtaIaqL2mFxUObJeeEC04NE4FL9R7THdh0bRxpnE5mPcZJ7s8mtPW9cn2o+JlBGurdDU+KRIlLeZOHGi+067KYpSsWLF33///fPPPw8NDXXfXgAvQecGwBW9evUSycnOzuY+NxTVlbRTN7OTBKdSbBLbTe0xuahJ+a6CxyEz7+aFlMNqj+k+6ht6ldXVFom66bh8yLLU5Zc7Fecm8+cilSiK0jXgNakor3LmzBk33e2W34svvnjy5MnHH3/c3TsC1EXnBqDIYmJipK5O2bFjh83m7XMhwAsdit8gOJtilYgG4YFiK8t7TIgxvGZUc8HjcDh+o1Nxqj2s++ga8LpU1BbzVw6lWP/+7LN8l+WUWdSkvK7hA4YeIlHe5q233kpLS3P3XsqXL79kyZJt27a1atXK3fsC1ELnBqDIBg8erNPJ3Be0ZYu3z4UA73T02hab3So1m6JW0TUq53u3yjQo11mnMUgdBIfDeTjB2y+VrKJvXU3fTiTK4szeYZ5ZzBCrM2+beZpIPYqidDX552m369evv/XWW57ZV7t27Xbt2rV8+fImTXz1EmjgHujcABSNXq8fO3asVNq6deukolCimG05J5J2CN7f1Timq2/NU6JRNE3KdRc8AqeT9+RYM9Qe1n3EmV6Vitpl+TbXmVb8nK3mqXbFUvwcRVFqG7rF6mRWW/E206ZN27bNc8u79+3b98CBA8uXL+f8G/wMnRuAonnssceqVasmEnXjxo29e/eKRKEEOpCwTvBCwWBDRK2olmqPqQiqRTYJN0ULHoGD8d7+NUoZbc1GxkdFopyKc3PeFyJRmY6kfZaFIlGK/97t5nA4hg8fnpmZ6cmd9u3bd9euXVu2bOnfv79er/fkrgE3oXMDUAR6vf69996TSluxYoXD4ZBKQ0lzLfNCYuZ5raKVejQv/5DaYyqCpuV7CI79Rk785fQTao/pProE/FWjaESijll/TnacE4lSFGVjntjyAE2Nf4nQVpJK8yrnz58fNUqFZes6dOjw008/Xbx48e9//3u5cuU8XwAgiM4NQBGMHj26dm2ZWd0URfnhhx+kolAyHUhYqzh1Uo8qYY0jA33jg10pY2StyFaCYz8Qv1btMd1HsCaqlXGEVJpgr6UoSoL9yBnb7yJRWkXX2fSSSJQXWrx48RdfyJzqLKrY2Nj33nvv8uXLS5Ys6dq1q0Yj8xUA4GF0bgAKKzY29h//+IdUWmpq6u+/y3zWQYl1/PpWsy1HaooOjaJtGuMbp90ax/TQKnqpUVvtliNJ3j43SceA5w2aAJGoq/aD52ybRaJu25Q3WSqqrWlUoCZcKs3bvPLKK+vXr1dr73q9/vHHH1+/fv3Zs2dff/31smV9b0ZZlHBc9QugUDQazcyZM8PCwqQCFy5caLVapdI8KTIycvjw4WrtPSsr68cff1Rr797G5rAcubahVWw/qcDG0d03Xpxvd3r1ShUaRdMs5iGNU+y71+PXt5jtOVJp7mDQBHY0PS+VJnvC7Zbj1l+v28+U1dUqfpRJE9LONHp93ifFj/JCNpttwIABW7ZsadiwoYplVK9e/ZNPPnn//feXLl06Y8aMzZs3O53evh4GoNC5ASikN998s2fPnoKBHlib1U0qVqw4e/ZstfZ+6dIlOrf89iX+2rq8zKwViqIE6yMeKN32eIpXL1ZRM7JlmDFacN21fQmrxLLco7VxRLCmtEhUhiPxgOV7kaj8nIpjk3nyE0FTRdI6m17amPdvqSkrvU16evrDDz+8efPm6tWrq1uJ0WgcOHDgwIEDz5w5M2PGjLlz56akpKhbEnBvXC0J4P769u0rODGJoig7d+48ePCgYCBKrBu58X+kHRacYrF5TC+1x3QfzWMeERzv1YzT17IvqD2me9Eo2s4Bf5VK22Ke4qaOaI9lXo7zpkhUqLZcC+MgkSjvFB8f37lz5/Pnz6tdyH/UqlXr008/jY+PX7hwYefOnbkLDl6Lzg3AfXTo0GHRokVareQ/F59//rlgGkq4vYkrFUUr9aga1iQqsKLaY7qrUFOZWuGtBce775q3n3BrZHy0jLaGSJTVmbfd/LVI1J9ZnNnbzdOl0roEvCI1kaZ3unr1qlc1b8r/PwW3cePGU6dOvfLKK1FRUWpXBBRE5wbgXuLi4tasWRMYGCiYeeHChaVLlwoGooQ7nboz25ymdeqkHs2jvfe0W7OyD2sVvdRIzdac4ynCc3WI6yq3+vZey7xs5w2ptD/bap7iUGRukiynq1fX8LBIlNe6evVqmzZtDhw4oHYhBd0+Bffdd9+1adNG7XKA/6JzA3BXf/nLX1auXBkUFCQb+69//ctm8+oZIOBbHE77vqRVilMr9WhSpqdOY1B7WHeg0Wible0lONIDSWtsDq++maqavn1lfSuptI3myVJRd5TmuHrAskQqLS5ArGX1WsnJyR07dly1yhtP/BqNxkGDBu3YsePgwYMjR44U/1UIuIDODcAd6PX6Dz/8cNGiRbJn2xRFuXTpku/OTQKvtS9ppeJUpG79CtKF1yvdSe0x3UHt8DZhhmipYSpOzd6kn9Ue0310C3hdKuqkdU2S/aRU2t1skpu4sqa+cyVdc6k0r5Wdnd2nT58PPvhA7ULuqnHjxjNnzoyPj580aVKlSv65Tjp8BZ0bgIKqVq26efPmN954wx3hb731lsXi1d/xwxdlWlJOpe4QPBnVomw/tcd0By3K9hMc44W0A6l58WqP6V6idQ/UM4hdubrR/JlU1D1ctu+7YNsuldY14DWpKG/mcDjefvvtRx99NDMzU+1a7io8PPzll1++cOHCggULmjRponY5KKHo3AD8l16vf+21144fP962bVt35O/bt2/hwoXuSAZ2Jy0TnHGxakjTMoFV1B7T/wg3xdQKays4xt1Jy9Qe033EmcRm6Ui0Hz9t9dAC0BvzxFrERsbHSmurSqV5uWXLlrVo0cLLpx3W6XRPPfXUgQMH1q9f/+CDD6pdDkocOjcA/9GvX7/jx4//85//FL9C8han0/n88887HA53hAMX0vel5sULNjYty/RXe0z/o0VUX61TJzW6THPK6TSxU0PuUEob3cI0RCptk3myU3AJvHs6al2R6rgoEqVVdF0CXhaJ8gmnT59u1arVxx9/7P2/Kbp27bpmzZpdu3Y99NBDateCEoTODSjptFrto48+evDgwWXLltWqVct9O5o5c+bu3bvdl48Szqk491xfrlF0Uo+mpXvptUa1h/UfWo2ueVQ/wdHtTf7Z4bSrPax76WR6Ua+YRKKynSn7LN+JRBWGQ7FvyhNb+KS1cUSQJlIqzftZrdY33nijU6dOFy9eVLuW+2vVqtXq1avp3+AxdG5AyRUTEzNhwoTz588vXbq0cePGbt3XlStXXnutRNywARXtT/nFZrcpDq3II1Ab3iCiu9pj+o8HwjqU0peVGprD4dyXvELtMd2LSRPS3jRWKm2reZrVmSeVVhg7Ld+YnTK3bBk1wR1M40SifMi2bdvq1av3r3/9y2736u8XbrnVv23evLlZs2Zq1wI/R+cGlDiRkZHDhw//9ddfr169+vHHH1epUsUDOx05cmRGRoYHdoSSLNeWcTR1ndaplXq0LP2Y2mP6j1ZRAwTHdermlgxrstpjupdWxhFBmgiRKLti2WqeIhJVeGZn5g7zLKm0jgEvGDQBUmm+Iicn5/XXX2/atKmvXKzRsWPHvXv3zp07t0KFCmrXAr9F5waUCAEBAZ07d/7ggw+2bduWlJQ0e/bsnj176nQ6z+x90qRJa9eu9cy+UMLtur5EcPbFqsHNygZUU3tMSqSpQq1S7QXHtTNZbM0xd9Aq+ji5m7v2WxZlOpKk0gpvs/kLpyJzs1YpTdkWRrFb/nzLkSNH2rZt++yzzyYlqfAmFpVGoxk6dOiZM2cmTpzI+m9wBzo3wD8ZjcYmTZqMGDHi888/37p1a1pa2saNG99888127drp9XpPVrJ3797/+7//8+QeUZJdyTmWkHNacJ6S1qWfUHtMSsvIxwTnJknJu3Ihc6/aY7qXxsYBkdoqUmkb5GZ6LJJUx8XDFrHZO+NMr2hK6mc2h8Mxa9asGjVqfPjhh3l5Hr3q1TWBgYFvv/320aNHu3XrpnYt8Dce/QAHQJZWq42KioqKiipbtmx0dHTlypWrVatWrVq1KlWqVK1a1cMd2h0lJSX179+fBdzgSbuSlzxW8T2ptGYR/VYnTrY6VPu8qNPoW0Q+pjjFPrXvSlnisVkWXdM14FWpqLO2jQn2I1JpRbXJ/O/GRpkLbsvqatc39Dpq9faV090nKyvrzTffnD59+sSJEwcPHuyxa0ZcVq1atXXr1s2fP//ll19OSUlRuxz4CfU/2AFQFCUuLm758uX3fk5QUJDRaAwJCQkKCgoKCgoLCwsLC9NoZBY7cgez2fzYY4/Fx3v1Ur/wP4fSVvWKmRCgKyWSFqgJbxTWc99N1ZY+qxsaV0pbVuiyO8XqyNufulwmyz1q6rtU1IlN8yC4tJoLLti2X7btraRvIZLWNeD1kty53XL58uXhw4d//PHH77777hNPPOHNvwFvGTJkSM+ePV944YXFixerXQv8AZ0b4BUqVqxYsWJFtauQ5HQ6Bw8evH27Vy8YBb9kceTuv/lzu9Ji9wW1iviLip1b64iBgifcDqevzrV79VxBXQPEJqG9bj9z3PqrVJprNpr/PUy/UCSqmr5dFX3ri7ZdImk+7dSpU3/5y18++uijv//97/379/fy/i0qKmrRokW9e/ceN25cenq62uXAt5XQa6YBuNtzzz33448/ql0FSqhdqYsEb3WrEtisXEBtVQYSaaxYM7i94Fh23likykAKqZyufl1DT6k0wTlCXHbQ8kO6Q+y6gziT2HWkfuDw4cOPPfZY/fr1582b5/2LBzz11FMHDhxg2QAUE50bAHl/+9vfpk2bpnYVKLmSzOcuZO0VnIyxVfhAVQbSJvwpjVMnNYr43BNXclW76asw4gJekYrKcd7cbZkjleYyh2LbbP5SKq2R8dEy2ppSaf7hxIkTw4YNq1GjxtSpU3Nzc9Uu516qVau2Y8eO0aNHq10IfBidGwBhL7/88ieffKJ2FSjpdtxcoHFopR7NQx8zaj09x7dOY2gR9qTgKHakfufhIRRJmLZ8c+MgqbQd5pkWZ7ZUWnHsMM+QqkSjaLoE/FUkys9cvHjxueeeq1ix4ttvv+3N6wcYjcavv/56xowZRqNR7Vrgk+jcAIhxOBwjR47897//rXYhgHIs87csW6rU2aoATViTUn08PIT6IQ+GaKOkhpBnzz6U8YuHh1AknU3jdYpBJMqh2LbInekqphznzd2WuVJprYwjgjVRUml+5saNGx988EHlypWffvrpQ4cOqV3OXT377LNr1qwJCwtTuxD4Hjo3ADIyMzMfeeSRb775Ru1CAEVRFLvTuvvm9xqHTurROtTTSyG3DR0qWP/etB8tDu+9lsykKdXWNEoq7aDlhzTHVam04tts/lxqJQaDJqBjwPMiUf7KbDbPnj27SZMm7dq1W7x4sdVqVbuiO+jSpcuOHTsqVKigdiHwMcwtCUDA+fPn+/fvf/ToUbUL8YSUlJQFCxaotffU1FS1du1zdqV/1zX8Ran1iysZm5Y31UswHxdJu68oQ9UaAR0E59fYmT5fLMsN2plGBWrETkFsNHvXmf/r9jPHravqG3qJpHU0Pb8+7xOr03v7cC+xY8eOHTt2xMTEjB49etSoUeXLl1e7ov9Rt27dLVu29OjR49y5c2rXAp9B5waguFasWDF8+PC0tDS1C/GQ+Pj48ePHq10F7u+mLf5k9oZ6wT2kAtuUGrrUPEEq7T77Ch0i1XMqinIud/t1i/d+OtQphk6ml6TSbq2iJpUmZVPev6U6t2BN6dbGEVvNU0XS/N61a9fee++9Dz/88NFHH33uuec6dOigdkX/VbVq1U2bNnXu3JnmDYXE1ZIAXJebmztu3Lj+/fuXnLYNvmVH+hzBGT5aBD9h1HhinhK9xtgqZJBg5dvT53igbJc1NT4ZoRVb0HKTebJUlKAztg3x9sNSaZ0D/irY2JcEVqv1+++/79ixY+PGjWfOnOk9s1DGxsZu2rSpWrVqahcC38D/9gBctG3btqZNm06bNs3plLl/AxB3KnfjDcsVqUk+TJrQZiEDPFB2o6A+wRqxuUkybSnHclZ7oGyXCa6+neq4eMSi2rLp97Ypb7JUVBltjUbGR6XSSpTDhw+PGjUqNjb2lVdeuXDhgtrlKIqixMbGrlmzpkyZMmoXAh9A5wagyFJTU8eMGdOxY8dTp06pXQtwL07FsTNzruLQSj3aBj/tgbLbhAwXrHlnxny70xsnabiltqFbeUN9ResQeWw2f+5QvHRR5n2WhZlKotRI4wJfVntAPuzmzZufffZZzZo1e/fuvWHDBrXLUWrWrPnLL78EBgaqXQi8HZ0bgCKwWq1ffPFFjRo1pk+fzqk2+ITdWQscdrvUDI0V9U0rGhq7teCy+po1DB2lClbsml1Z89xacDF1DXpFqpnJ06TvNH+r9oDuyq5YtpqnSg22irFFNUM7tcfk2xwOx8qVK7t27dqwYcNvv/3WbDarWEyrVq2YnBn3RecGoFDsdvvcuXNr1Kjx0ksv3bx5U+1ygMLKcqQcylkhetrtGbcW3DboacFqj+WuuWn3ovnxC4jVN6xtinNqHCKPneZv8pwZao/pXrblTbdqcqTG2y34FbUH5CeOHj36zDPPVKxY8Z133lFxIe+BAwe++uqrau0dPoHODcB9ZGVlTZ48uXr16sOHD798+bLa5QBFtj17luBsH81MTwZoSrmpVL3G1DJgiOTcJNmz3FSqiLjg8YrWLvJwaq1bcqaoPaD7yHIk7zUvkBpy3YAHo/W11R6T/0hOTp44cWLVqlXHjh175coVVWr46KOP2rRpo8qu4RPo3ADc1YEDB0aPHl2+fPm//vWvly5dUrscwEUXLDsTrCfE5ilRQpsGPOGmUpuYHhOcmyTFdvG0Wf17eO4mQlehSdCjTq1D5HHEvOKG/aLaY7q/zdlfSQ1Z0Tq7hLyg9oD8TW5u7tdff12jRo0RI0Z4vn/T6/ULFy4MDQ318H7hK+jcABR04sSJDz74oE6dOs2aNZsxY0ZmZqbaFQHFtT1nplQ7pDi17QPHuKnOtgHPCta5I+cbp+Bi3tI6hYzT6rRS931tyv5K7QEVSqLtxGnLeqlRNw9+spSurNpj8kMWi2XOnDm3bhDw8PWTVapUmTRpkif3CB9C5wZAURQlJSVl6dKlzz//fNWqVevVq/f2228zbyT8yd68hWZ7jtTNY7HaJpX1LcSLjNHVrabvIFWkzW7dnTdXvEgpgdqwNqFDnVq7yOOybd8Fy061x1RYm7K/khq4TqfvWGq02gPyWxaL5YsvvqhZs+bHH39ssVg8tt+RI0fGxcV5bHfwIXq1CwCgApvNdu7cuTNnzpw4ceLgwYMHDx48e/as2kUBbmR2Zu7LXdjeNFYqsJ1xzCXbXqm0W9qaRmnsOqm0Q5alWY4UqTRxbUoNM+oCFaFTgpsyvf0Ot/xO5f6eZD8Vbaglkta21PD16Z+ZndkiafizzMzMN954Y9asWZMnT+7Vq5dndvrVV181atTIavXe9TygCs65ASVRXl5er169+vbt+8YbbyxZsoS2DSXBNvPXgmlNjX8J0Ejei2LQBLQ0DhUMlB2vLL3G2DHsWUXjEHmkO+IP5/ys9piKwKk4N2dMkxp+kD60ZamBao/J/50/f753795PPPHE9evXPbC7OnXqvPjiix7YEXwLnRtQEoWEhCxYsECv56w7SpAE+5ELtu1SaUZNUAvjYKk0RVEaGx4P0kRIpcXbD/9h2yGVJq5pyKOhhjJSVwxuyZjhzUuN39G+rCXZzhSpI9ApfLRWw7/nnvDDDz/UrVt38eLFHtjXG2+8ER4e7oEdwYfQuQHeYvTo0VXv7uOPP5bdXatWrSZOnCibCXi5beZpgmltTaME0wSv5FSkRypLo2g6R4yWOuNkUbJ3ZX6n9piKzOrM2545R+ogRBpjGwU/ovaYSoobN24MHDjw6aefzsnJceuOSpcu/corLNmH/0HnBniL69evX7y7t99+e9++fbJ7nDBhQqdOnWQzAW92yPJjtlPs1q9YXaMq+tYiUeV1DarqxRZxMjsz91kWSKWJeyC4S3RADanTTXsyF+fY09Qekyu2p8+2ac1Sx6FzaeYp8ajZs2c3b97c3VN5vfDCC6wQgPzo3ADfYLPZhgwZkpubK5ip1Wq/++67iAixC7QAL2dTzDvN3woGtjfJLA8ge/puj2W+2ZklGCirc+lRUguaObX2rWnfqD0gF2XYrh/MXC51KGID69UIYgVnjzp58mSbNm1+//139+0iLCxszBh3rUECX0TnBviMU6dOvf7667KZFSpUmDlzpmwm4M22m6c7FadUWhPDE4Ga8GKGGDVBLYxDJMr5D2++VLJCQIPqwa2krhI8mf17suWC2mNy3Zabs6QOhaJxdC4t2f+jMNLS0nr27Pntt5LfBxXw/PPP63RiU87C19G5Ab5kypQpa9eulc187LHHRo4cKZsJeK0bjgsnrWuk0gyawOI3XU0MTwRqwkTqURTlvG1rov2YVJq4zlEjpa4PdGrtm1NnqT2gYonPO34+b6fU0agd2iHGJLPSAArParWOHDnSfWtnV6xY8eGHH3ZTOHwOnRvgS5xO59NPP33z5k3Z2MmTJ9euXVs2E/Basqek2hX7QkfZSyW3e/FiABHG2AbhPZwah8gj0XLqXLbPrL59N1tufCN1QJwaR8cyT6s9oJLI6XS++uqrX375pZvy+XYVt9G5AT4mPj5+3LhxspnBwcGLFi0yGo2ysYB3OmH99abjslRaOV39qvq2Lr88VtdYcG6SLGfyQcuPUmniOkU9rdFopC4O3JLiq3e45XciY+MN60WpY9I0vFeooazaYyqhXnrppYULF7oj+aGHHoqMjHRHMnwOnRvgexYvXrxo0SLZzCZNmnzwwQeymYB3cij27eYZgoHFmaek+Kfs8ttp/sauWAQDBQXpwpqV7it1ZWCmI/lg2kq1xyTAqTi23pgjdVg0Ok37KMl7JlF4TqdzxIgRu3btEk82Go39+/cXj4UvonMDfNK4cePi4+NlM1999dXu3bvLZgLeaadlll0RW7u5ifGJII0r34gbNcGCy3k7Fed283SpNHGto5406kxSJ5d23Fjgc6tv382+1OV5jgypI9MqaoBJF6z2mEooi8Xy6KOPXr9+XTy5b9++4pnwRXRugE9KS0sbPny4bKZGo5k7d25UVJRsLOCFMh1JRyzLpNL0iqmlcagLL2xm/ItJU0qqjJPW1amOi1JpsgxaU9uyf5G6m8uq5O1K+V7tMYmxOHJ2p/4gdXBM+qCWpR9Te0wlV2JiovhvZ0VRunXrFhAQIB4Ln0PnBviq9evXi98PXa5cuW++8YdbR4D78oZ5StoZJVdP9ubFAJpEPhJsDJe6JvDgzV+ybcITNalre/ICh8YqdXzaRQ/UafRqj6nkWr169ezZs2UzAwMD27dvL5sJX0TnBviw119//dSpU7KZffr0EZ8BBfBCZ22bkuwnpdKidXWq6zsU6SWxusaV9C2kCkh1XDpu/VUqTZZGo20fM0hwBsVt1xeoPSZh6Zako2nrpI5PqKlMw8geao+pRHv11VfFZ4Hu3LmzbCB8EZ0b4MPy8vIGDx5ss9lkYydNmlS3bl3ZTMALbRU9SVXUyf07mCS/Itlunu5UHIKBgmqHtYsKqKgoDpHHuYxdSbnn1R6TvO3XF0odIkVxdIgRu38SLkhNTX3nnXdkMzt0KNp3Q/BLdG6Ab9u/f//EiRNlMwMCAhYtWsQl9fB7ey3zLM4cqbQmxseDNYW9TdSkKdXMOFBq13bFusvsvdc5dyw3WOo6QKfWvv268My6XuJy1tErOUeljlJ0cNUaYS3VHlOJNn369CtXrggGNm/eXKvlc3tJx98AwOd99NFH4tMQN2zY8JNPPpHNBLxNrjN9v0Vs/SW9YmplGlbIJzczDjRpQqR2fdiyNNMpP52diIoh9SqF1pe6DjDFfOlMus+vvn0325MWC15T2qHcU2oPqESzWCyff/65YGBQUFCtWrUEA+GL6NwAn2ez2YYOHZqdnS0b++KLL/bs2VM2E/A2W81TBdPaGkdpFE1hntnOJDk3iexln7Lalf+LU2OXeuxIWuJ0eulFocV3PHVjuvWa1LGqFt40JqiG2mMq0WbNmpWbmysY2LhxY8E0+CI6N8AfnD179tVXXxWPnTNnTnR0tHgs4D2u2g9esu2RSiurq1VD3+m+T6uoa1ZR11Rqp4n24+dtW6TSZEUGxNYt3V7qJFKeI/Ng8mq1x+RGdqdtd9IywdNu7WKfVHtMJVp6evqyZWKrjyiKUrt2bcE0+CI6N8BPTJ8+ffVq4c80ZcuWnTNnjkZTqHMIgI+SnUy/MPOUyJ5w227+WjBNVtvyjysap9Qa0/uu/2KxS57B8EL7kn62OfOkjliDqM5hprJqj6lEW7RI8rbMGjU4iVrS0bkBfsLpdD7zzDM3btyQjX3ooYdefPFF2UzAqxywLs5xis3f3dj42L3nKQnQhDY3DpLancWZvccyTypNVpAhrHF0d4fGLvNQbLsTJU9feKccW8ah5N+kDpqiVVqX66/2mEq033//XfCCSTo30LkB/iMxMXH0aMnv8m/55JNPGjVqJB4LeAmrM2+3WWzZXJ1ibG0acY8ntDAONmqCpHa3z7Igz5khlSarRbneeq1eapr7kze3pZmT1B6TJ+xM/ElweYCm5XoG6MXmwkFR5ebm7tixQyotNjZWKgo+is4N8CtLly6dP3++bKbJZFq0aFFgYKBsLOA9tolecNjONPoe85QUddm3e/PauUn0WmPL8r0Fb9naFf+T2mPykOScS+fS90kdN6PO1CyGuabUtGWL2G2oMTExUlHwUXRugL954YUXZNeQURSlTp06kyZNks0EvEey4+xp63qptCht9Zr6uDv+UWV9y1id2Bnsi7Zd8fZDUmmyGsd0DzQES02TmJB95lLGMbXH5Dm7E5YLTsjZMra3TqNXe0wl18GDB6WiDAZDRESEVBp8EZ0b4G/S09OHDRvmdDplY8eOHdu3b1/ZTMB7yC4PcLc5SNoZJa9nlp1bRZBG0bSK7SN4wm13wnK1x+RR51L3peRdkTp6IabwBtGd1R5TyXX06FHBtLCwMME0+Bw6N8APbdy48d///rd47DfffFO+fHnxWMAbHLP+ku5IkEpraOxXSlNwTr8ATWhT41+kdpHtvHHQukQqTVbtqNYRQdFSjUeWNfX49a1qj8mjnIpzT/wvgq1vqwp9CrnSIMRdvXrVZrNJpYWHh0tFwRfRuQH+6c033zx+/LhsZunSpefOnavV8u8G/JBDse2wzJRK0ymGVqbhBTa2NA4TnJtkt3mO1ZknlSarTaW+ghf77U1YZXeKffD1FUeSNuTaM6SOYVRIbLXIJmqPqYSy2WxJSWKT69C5lXB8AgP8U15e3uDBg61Wq2xst27d3LHkN+ANdphnOBS7VFo702jN//6SbSc3N4lTcXrtMm4Vwx4oF1rdqThEHlaH+WDiWrXHpAKLPe9Q4nqpw+hUHK0r9VF7TCVXcnKy2iXAT9C5AX7r0KFD77zzjnjsBx980LRpU/FYQHXpjoSj1hVSaaW11Wobut3+saq+bTldfanw09Z1yY5zUmmyWlXqLXjC7fj1LdmWdLXHpI598avtilXqSFaKeCCmVDW1x1RCpaeX0L/DEEfnBvizf/7zn9u3b5fNNBgMixYtCglhgSD4Idk5P/LPUyJ4wk3x4rlJSgeVrx7VWPBM0d6rq9Uek2rS85LPpOwRPJitKj2i9phQXDqdTu0SoCY6N8Cf2e32oUOHZmdny8bWqlVr8uTJspmANzhj/T3ZcVYqrYGhT6g2RlGUQE14E8MTUrFpjqvHrCul0mS1rPSwonFKzatxKe349axLao9JTXuvrhacp6R22RZhAWXUHtP/MJlMLVq0aNCggdqF+Ay7XeyKbvgiOjfAz124cGH8+PHisc8888yAAQPEYwF1ORWn4OksraJvbXxaUZSWxqEGjdha9jvMMx2KN87YEWwMq1uujUOxSz1K8gm3W66mnU7MPC91PJ0aZ4tKD6k7IoPB0LRp02effXbmzJkHDhzIysras2fP4MGD1a3K3UqVKiUVJb7kD3wLKzMC/m/WrFl9+/bt1auXbOzMmTN3794tvuo3oK7d5rm9Aj40aAJE0tqYRq7L+7i9aYxImiI9B6asJhW6arVaRXGIpKXlJp9PFlvC2Hftv/Lbw/WelUqrV77dtj9+yrMKX4hxDwaDoUGDBs3+v4YNGxqNxgLPMZlMHqtHFUFBYpPKcstcCUfnBpQIzzzzzPHjx6OiogQzw8PDv/vuu7i4OC7egD/JcaYetH7f0jhMJK20tmqvwA+idXVE0hRFOWJZkeFIlEoTZNCZGlfo4nTKtG2Kouy/stapcHpBOXV9T8caA4KNMusvG7SGxrFddl1049W2hWnVCvD71aUF7wzPysqSioIvonMDSoTr16+PHDly+fLlsrEdO3acMGHChx9+KBsLqGureapU56YoSveAN6SiFEXZZp4qmCaofvl2RoNJalkFiz3vWMI2kShfZ3fYDsb/3rZaX6nAxhU777v8m80htmaMC61aAWXKeNfdd7L0en25cuWk0lJTU6Wi4Ivo3ICSYsWKFbNnzx4xYoRs7MSJEzds2LBr1y7ZWEBFl2x7rtgPVNR53eoX1+2nz9o2ql3FHWg02qaVujqFrpNUFOVYwjaL3UvXGfe8I/FbWlbtqdPIfGYLNIbUKdfqaHxxG+OWLVs+/fTTrrVqBVSoUKGYxXizypUrS00I6XA46NxKOGYoAUqQ8ePHX7x4UTZTp9MtWLBA8PZrwBt457T728xfe+cFhDXLNikVGCE2C6JiP3hlg9pj8iI5lsyTibsEJ5lsWqmrRtEUs6oHHnhg9OjRzZs3L2bbpihK5cqVi5ngzapVE1tG79q1a1JR8FF0bkAJkpGRMXToUIdD7HvxW6pVqzZlyhTZTEBd+y2Lcp3eNROA1Zm7xzJX7SrurFmVrk7FLvU4m3wgPTdF7TF5l/2X1wse4fDgqCpR9YpZ0qlTp0SGpihKeHi44PWE3qZ27dpSUZculehFMqDQuQElzdatWz/99FPx2CFDhjz11FPisYBaLM5sb2uT9lsX5zhvql3FHVSIqFmmVKzggtH7Lq1Xe0xeJzX72oWUo4IHuVmVrsUs6fTp0yJDu6Vhw4aCaV6lVatWUlHiV83A59C5ASXO3//+9yNHjojHTps2rUqVKuKxgFq2m6erXcL/2JbnpXOTNK3SRbCjuJp2NimdEwt3cODS74LHuVx4lZiwYl2jmJ6e/scff0iNTrC98Tbt2rWTijp37pxUFHwUnRtQ4pjN5iFDhlgsFtnY0NDQhQsX6vXMewQ/cc1+4pxts9pV/McV+/7L9n1qV3EHkSExFUvXElx9+8BF7nC7s/ib569lXBQ81I0rdypmSfv37xcZmqIoHTp0kIryKuXKlatatapU2okTJ6Si4KPo3ICS6MiRI2+++aZ4bJs2bd5++23xWEAtW71mCn7vqaSAxpU6Cp4ISs2+dinlpNpj8l4HLm0UPNpVy9YLCyxdnHoEO7f27dsHBgZKpXmP7t27C6YdPXpUMA2+iM4NKKE+++yzLVu2iMe+9dZbgleGAOo6YlmW6UhSuwol15l2wLJY7SruINgUWqNcQ8GzQAcvbfLOyTO9xB/Xj6XnpUgdbafiaFi5fXHq2bZNbM29gICALl26SKV5jwEDBkhF5eXlnTlzRioNPorODSihHA7HsGHDMjMzZWO1Wu3ChQvDw8NlYwFV2BXrTssstatQdlvmWpw5aldxB/UrttFoNFKngLIt6WeuHVR7TF7N4XQcurRF8LRb7fJNAwxBLtezZ88es9ksNbq//OUvUlFeIiQkRPCc2/79+61WsfXT4aPo3ICS6+LFiy+++KJ4bKVKlb7++mvxWEAV280znHILTLtagzf+D2XQm+pUaC7YRRy7stPhsKs9LG93OmF/rjVL6phrtdp6FV2fGsRisezcuVNqaP369QsODpZK8wa9e/cOCAiQStuxY4dUFHwXnRtQos2ZM2fZsmXisU8++eSwYcPEYwHPu+m4fMy6UsUCzto2JtnFFs4S9EBsM73eIHXlnsWee+LqHrXH5ANsduuJq7sFr1CtW7GFXmdwuZ41a9ZIDa1UqVKPP/64VJo3GDdunGAanRsUOjcAo0ePTkqSv5NnypQpNWrUEI8FPE/dU17eOTeJVqOtV7Gl4Am3U/H7zdZctYflG45f2W1zWKSOvNEQULNcI5eLWb16teDQXnrpJcE0dTVp0qR9+2LdRpif3W7fsIFpV0HnBpR4ycnJI0eOFI8NDg5euHChweD6V7mAlzhp/e2GQ2zdqiLJcFw7almhyq7vrWp03aCAEKnmweG0H7u8S+0x+YxcS/bZhEOCbXO9Si01Go1rxRw5cuTy5ctSQ2vcuHHXrsVdItxLyN6MsGPHjoyMDMFA+Cg6NwDKypUrZ86cKR7bokWLiRMniscCHuZUHGqddtthmWlXvHFOgvqVWzmcdqnHhaRjWXnpao/Jlxy9vEvw+IcEhlUqU8vlYn788UfBoX3wwQeCaWqpVKnSoEGDBAN/++03wTT4Ljo3AIqiKC+//PL58+fFYydMmOCXEz2jpNlp/tauCC9ef18Oxb7TLP+VSvGVj6wSHhIleM7n6CVOuBVNRk7q5eTTkqfdKrd0uZgffvhBcGitW7fu27evYKAq3nvvPdlLTpYuXSqYBt9F5wZAURQlKytr6NChDofwHHoajWb+/PmRkZGysYCHZTtTDlokP54WxnHrypuOKx7eaWHUrdxCsGdISP0jNVP9RfN8zrFLuwXfhajQmOjwCq5Vsnv37rNnzwoO7bPPPhOcktHzmjRpIjtH17Fjx06d8sZpiuB5dG4A/mPHjh2ffPKJeGxsbOysWeqviAUU0zbzNL/fY2FEhJSJiawoOLfh8ctMKemK6+nxSWlXBN+IOpWauVaJ0+mcPXu24NCqVav29ttvCwZ6klarnTJlisv3Dd7R4sWLBdPg0+jcAPzXO++8c+jQIfHY/v37jxo1SjwW8KQLtu0J9iMe212K4/wp6zqP7a7w6lRq5nQ6pB43M68n3Lio9ph81YnL+wTfi9ioqmHBLl4fMXfuXLtdci2+CRMmtGjRQjDQY5577rk2bdoIBjocDtnGGD6Nzg3Af1mt1kGDBpnNZvHkf//737Vr1xaPBTxpmwfnKdlm/tqp9grgfxYcUKpS2RqCF+mduLxP7TH5sKsp5zNyUgXfjgcqNnGtkoSEhOXLlwsOTafTLV68ODQ0VDDTA+rUqSN+6cqvv/6akJAgmwnfRecG4H+cOHHijTfeEI8NCgpavHixyWQSTwY8Zq/lO7MzywM7sinm3eY5HthRUdWs0FDROKWmNMzOy7h0XfL+qJLG6XSeuLxfcJLJStE1A4xBrhXz+eefy46uWrVq3333nexlh25169dcYGCgbOz06dNlA+HT6NwAFDR58uSNGzeKxzZu3Pgf//iHeCzgMWZn5l7LfA/s6KBlSbYzxQM7KhKj3lStfB2H4pB6nL56yOGQvMSuBLp47XSuJVvqHdFoNTVi67tWydatWw8cOCA7ut69e3/00UeymW6i0WhmzJjRsGFD2djTp0//+uuvspnwaXRuAApyOp3Dhw9PT5dfXumVV17p0aOHeCzgMZ6ZNcQ75yapWu4BrVYrdXrHbM09n3BC7TH5PLvDdubqEcHTbtVj6+h1Lk5n//7778uOTlGUCRMmyC5p7SZ///vfZRdwu+Wzzz4Tn/MZPo3ODcAdXL58+fnnn3dH8ty5c8uUKeOOZMADEuxHL9i2u3UX8fbDf9h2unUXLtBqtDUq1BO8peqPxJNWm6eXyPNL5+OP2+wWqfdFrzdUiXFxVe4VK1acOCHfjX/++edjx44VjxU0duzYd999Vzw2Pj5+/nxPnOSHD6FzA3Bn3333nez6qrfExMR8++23PnTrAlCAu0+IeecJt4rR1U3GAKlpDO0O29mrx9Qek5+w2MwXr50WnGSyRoV6Wo0rnw+dTudbb70lPkBFUaZOnfr666+7I7n4xo4dO3XqVHckf/DBB7m5ue5Ihu+icwNwV2PHjk1MTBSP7dWr17hx48RjAc84ZPkxy5nspnCzM3OfZYGbwoujemxdwUvyLiedyzVnqz0m/3H2yjG7wyb17gSYAstFVXKtkmXLlu3c6ZYzxp988snUqVMNBhev5HSTCRMmuKltu3Tp0rfffuuOZPg0OjcAd3Xjxo1nnnnGHcmTJk2qX9/F++ABddkU8y6zu5ZX2mOZ55npK4skOjI2JCjU4XRIPTjhJis7LzM+5aLgG1S9Ql2Xi3nttdcEh5bf2LFj169fX758eTflF4nRaJw+ffrHH3/spvwJEyZYLFxOjILo3ADcy+rVq6dNk792y2QyLVy4MCAgQDwZ8IDt5ulOxemOZE8uGVd41WIfELzD7frN+MzsNLXH5G/OXT0u+B6FhUSUDot2rZLt27e77+6sjh07Hjp0qF+/fm7KL6TKlStv3bp11KhRbsrfunXr999/76Zw+DQ6NwD38eqrr549K7/mUoMGDf71r3+JxwIecMNx4aR1jXjsedvWRLvXnYwKC4mMDCsjeKnkuavH1R6TH0rLvJGSdk3wbaoWW9vlYiZMmJCZmSk4uvzKlCmzbNmy+fPnR0e72FsW09ChQw8fPtyyZUs35dvtdjfNEAY/oFe7AADeLicnZ8iQIdu3b9fpdLLJzz///Jo1a1atWiUb626xsbGTJ09WuwpPi4+Pp9POb5t5Wl1DT/FM2UAR1WJrO51i85KnZ91MSUuSSkN+5+NPRoSWlkorExFTKigsM8eV5WESExNfeeWVGTNmSBXzZ4MHD+7Tp88HH3zw1VdfeWwaj1q1ak2ZMqVbt25u3csnn3xy5MgRt+4CvovODcD97d69+8MPP3z77bfFk2fPnt2wYcNr166JJ7tPVFTUSy+9pHYVnnb48GE6t/xOWH+96bgcoXVxIoc/y3ImH7IslUqTEhgQXLZ0eYdc5/ZHwmmpKBRwPTUhIyctJDBUKrBK+ZpHz+1z7bWzZs166qmnOnfuLFXMn4WGhv7zn/984YUXJk2aNGPGDLf2b7GxsW+88caYMWPEv8Es4PTp0+5YFg9+g6slARTKxIkT9+1z8Vf4PZQpU2bu3LksEgCf41Ds282SpxR2mr+xK143IUHlmOpOp0PqArzsvMzElCtqj8mf/RF/WvCCyejSsSaji3cjO53OESNGpKe7csquSCpWrDh58uT4+Ph//vOftWq5uBLdPTRq1GjmzJl//PHHc8895+62zWq1Dho0KC8vz617gU+jcwNQKDabbciQIe74UrNHjx7jx48XjwXcbadlll2xikQ5Fed283SRKEEGvbF82UqCMxZeTDjrdLplZhfckph8Jc+SK/V+KRqlYkw1l4u5ePHi6NGjBUd3DxEREa+99trp06d379792muvFb+Fq1ix4osvvrhnz55Dhw6NHDnSM6sRvPnmm/v37/fAjuC76NwAFNapU6cmTJjgjuSPP/64cePG7kgG3CfTkXTY8pNI1Anrr6mOiyJRgmKjKysaReoEjsWal5B8We0x+TmH03Ep8ZzgabfYspV0OtfvrPn+++9nzZolOMD7atmy5T//+c/Tp09fu3ZtyZIlL774Yps2bcqUKXPfF2o0mho1ajz++OOTJ08+fPjw5cuXP//88xYtWnig5ltWrVr16aefemx38FHc5wagCL766qvevXt3795dNtZoNC5atKhZs2Y5OTmyyYBbbTd/3dT4pEhO8UNkaTXa2LKVBOcmuZp00W63SaXhbuKvX6pcvrpOK3Ndn1arLV+m4pVrf7ic8Pzzzzdq1MiTLdAt0dHRjz/++OOPP37rx4yMjHPnziUkJOTk5OTk5Ny6jFOn00VGRkZFRVWoUKFatWoqLlRz5syZwYMHc0Ya90XnBqAIbt26cPTo0YiICNnkBx544LPPPhszZoxsLOBWZ22bkuwno3V1ihOS6rh03PqrVElSoqNi9XqD1NwkDqfjatJFkSjcm81mjU+6VCGmilRgbHTlq0kXXW4qzGbzY489tnfvXrUm8b8lNDS0adOmTZs2VbGGu8nIyOjbt29aWprahcAHcLUkgKKJj48fN26cO5JHjx6t+vqqQFFtLfZU/tvN052K2KktERqNpnzZioIX3V1LvmqxmtUeVklxNemi3WGTeu8MBkOZyJji1HPlypVevXp5bO5+32K1Wvv06XPq1Cm1C4FvoHMDUGSLFy9evHixO5K/+eab2NhYdyQDbrLHMtfidP0qX7ti3WX+RrAeERGhpQNMgQ458UmX1B5TCWK25F2/kSj49sWWLe7qF/v27Rs4cKDD4V3fUKjO4XAMHjx48+bNahcCn0HnBsAV48aNi4+PF4+NjIycN2+eVss/TfAZec6M/ZaFLr/8sGVppvO6YD0iYqMrOZ0OqUdqenJOXrbaYypZ4pMuCb6DgQFB4aGRxSxpxYoVw4YNExmd3xg1atSSJUvUrgK+hI9HAFxx8+bN4cOHuyM5Li7u9ddfd0cy4CZbzVOL8driXmwprlRwaFBQiN1pl3pc5YSbx2XnZt3MvCH4JsaUEbga4rvvvnPTxfa+aNy4cd9843Xn2+Hl6NwAuGj9+vVffvmlO5Lff//95s2buyMZcIer9oOXbLtdeGGi/fh52xbxeoopOqq84OmarOyMzCy3L8eMP4u/dlnwfQwNCQsKDC5+VdOmTRszZkwJv2zSZrMNGzZs2jSv+9YG3o/ODYDrJkyYcPr0afFYvV6/cOHCkJAQ8WTATba5NK2/Fy4GYDIGhIdFCq6+nXD9itpjKqEystKyc7ME38roqPIihU2fPn3o0KFWq8wq9j4nNze3X79+8+bNU7sQ+CQ6NwCuy83NHTx4sM0mv0ZTzZo13XRCD3CHA9bFOc6bRXqJxZm9x+J1n97KRsU4HHapR25eTlpGqtpjKrkSr18VfDfDQyMMBqNIYQsWLOjVq1dGRoZImg9JTEzs2LHjqlWr1C4EvorODUCx7Nu3b+LEie5IHj58+BNPPOGOZECc1Zm32zy7SC/ZZ1mQ5/SuT656nT4irLTgWZqklAQWF1bRzfQbZkue1LvpVJxlIsXWZFu7dm2HDh0uXSpB90Du3bu3WbNm+/btU7sQ+DA6NwDF9dFHH+3e7cpNPvc1ffr0SpWKOxs14BnbijjXiBfOTVI6ooxGUaQaN6vVkpqWovaYSjSn03n9xjW5TtxROiJKp9VJlXfkyJFmzZpt2LBBKtCbTZkypUOHDomJiWoXAt9G5waguGw225AhQ3JyXF/S6m7Cw8MXLFig04l9UADcJ9lx7rR1fSGf/IdtZ7z9kDvLKTKtVhsRXlpwNsLk1KQSPhGFN0i9mWKxWaTeU6fijAgvLVjejRs3evTo8cEHH/jxX5XU1NQBAwY8//zzZjOL0aO46NwACDh79uyrr77qjuT27du/8cYb7kgGxBV+eQAvnJskPDRCq9VKrd1st9tTb3LCTX12hz01LUXqbXU4HJHhpTUajWSFdvvbb7/dtWvXK1f8cDKblStX1qtXb+nSpWoXAj9B5wZAxtdff7169Wp3JL/77rtt27Z1RzIg65j1l3TH/Veoz3beOGj1uuV3w8MiBWezuJl+w2aXn7sILki9mWK326TeWa1WGxoSJl7kpk2b6tevP2vWLPFktVy/fn3o0KG9e/e+du2a2rXAf9C5AZDhdDqfeeaZ1FT5eeR0Ot13330XGhoqngzIcii2HZb7f/TcbZ5tdeZ5oJ7CCwkupdfrBecm4YSb97DarOmZaYJvbkR4pDvqzMjIePbZZ7t27Xry5El35HuM3W7/8ssva9WqNX/+fLVrgb+hcwMgJjExcfTo0e5Irlq16tSphb0ODVDRDvMMh2K/xxOcinO7ebrH6imk8LAIwQvqMjLTLVaL2mPCf91MuyH4/ur1BpFVue9ow4YNDRs2fPnll9PTfXIB92XLltWvX//FF1/00frh5ejcAEj68ccfv/vuO3ckDxo0aPDgwe5IBgSlOxKOWlfc4wmnreuSHec8Vk9hBJgCjAaj4KWSaems4eZdzBZzVk6m4FscFhruvmptNtu///3vKlWq/POf/8zL866z0/ewatWqNm3aPProo6dOnVK7FvgtOjcAwp5//nk33Wg+derUatWquSMZELQ1717nh4u6eIAHhIWGC15Kl5OXk2f2mU/bJUda+k3Bd9lkMmm17v0MmZaWNmHChMqVK3/yySfefP7KarUuXLiwSZMmvXr12rVrl9rlwM9Jzg4E3E2NGjXat28vEnXu3Llt27aJRImIi4uTWnBsw4YNly9fFolSXf369Zs3b+6O5OPHj+/du9eFF0ZGRvbp00e8npIjNTX1559/VrsK36BRNG+FnS6jrfnnP0pzXH03vcq9L6f0PNmP4E6nk9W3vZPsG+3w4Dz+YWFhw4cPf+6552rWvMP/Vmq5cuXKrFmzpk+fnpSUpHYtKCno3AAAENYl4K/9Az/78/Zfc99ZkzfR8/UAfkCj0XTp0mXo0KGPPfZYSEiIWmVkZGT89NNP8+bN27x5syfbV0ChcwMAQFyQJvL9sKsGTWD+jQ7F9vf0ShmORLWqAvxDcHBwz549+/Xr98gjj4SHh3tmp5cuXVq1atWKFSs2btxotVo9s1OgADo3AADkDQ6e09I4LP+WQ5Yfv81+XK16AP+j0+latGjRrVu3Tp06tWzZUnbxGKfTefr06T179mzduvX333//448/BMMB19C5AQAgr7K+5Sulduff8lVm1zO2DWrVA/g3rVZbu3btpk2b1q1bt27dujVq1KhYsWJYWGEXDc/Kyrp69erFixfPnDlz8uTJEydOHDp0KCMjw601A0VF5wYAgFu8Frq/oq7prf++bj/9j4w6ToWpOwDPKVWqVHR0dGRkZERERGBgoMFgCA4OVhQlLS1NUZScnJzU1NSbN2+mpKR48/SVwG16tQsAAMA/bTNPHRg06///99e0bYCHZWZmZmZmql0FIIb13AAAcIv9lsW5znRFUazO3N2WOWqXAwDwbXRuAAC4hcWZvccyV1GU/dbFuc40tcsBAAAAANxJtK7OFxHOSjq3LEwPAAAAAJDRL/BfapcAAAAAAAAAAAAAAAAAAAAAAAAAAAAAAAAAAAAAAAAAAAAAAAAAAAAAAAAAAAAAAAAAAAAAAAAAAAAAAAAAAAAAAAAAAAAAAAAAAAAAAAAAAAAAAAAAAAAAAAAAAAAAAAAAAAAAAAAAAAAAAAAAAAAAAAAAAAAAAAAAAAAAAAAAAAAAAAAAAAAAAAAAAAAAAAAAAAAAAAAAAAAAAAAAAAAAAAAAAAAAAAAAAAAAAAAAAAAAAAAAAAAAAAAAAAAAAAAAAAAAAAAAAAAAAAAAAAAAAAAAAAAAAAAAAAAAAAAAAAAAAAAAAAAAAAAAAAAAAAAAAAAAAAAAAAAAAAAAAAAAAAAAAAAAAAAAAAAAAAAAAAAAAAAAAAAAAAAAAAAAAAAAAAAAAAAAAADU9vzzz6tdQnEZDIaIiIgqVarExsaWKlVK3WKefvppdQsAPEyjdgEAAOD+oqOjBw4cmH/LoUOHNm3aJBKu1Wqff/55rVZ7e0tiYuL333+vKErdunV79OghspcTJ06sXbv2jn/09NNPh4aG3v5xwYIFycnJIjstkvHjxxczISMj49tvv73bn6alpb3//vuTJk0q5l7uqFOnTk2aNLn9465du3bt2iWS3KxZs7i4uI4dO9atW7dKlSr5/57k5uaeOnXqyJEjmzZtWrt2bUJCgst7adKkSadOnW7/eI+/LbfZ7fYhQ4YsXLjQ5Z3eQ+/evatXr377x7Vr1544ceLeLynwFrjml19+OX/+fDFDAAAAoBqDwZCQkODM59y5cxqNzDewvXv3dv6vt95669YfDR8+3Clkzpw5dyvg4sWL+Z/ZuHFjkXEVVfHHePHixXvkp6WlOZ3OsWPHuqP4yZMn56/k3XffLWZgVFTUW2+9dfbs2cIPf+vWrUOGDAkICHBhd+PHj88fdY+/Lbc5nU6LxdKnTx8Xdndfy5cvz1/P8OHD7/uSAm+Ba/r16+eO4cA/aO//FAAAoDar1Tpjxoz8W6pXr969e3eR8DFjxtx7XxA0ZcqUQYMGqV3FvYSGhn7yyScXL158//33a9SoUfgXtm/fft68eX/88cfYsWONRqP7KrzNYDD8+OOPXbt29cC+ANXRuQEA4BumT59us9nybynQcbmmcuXKPXv2zL/lhx9+uH79evGTcUcajWbevHmPPvqo2oXc2YABA06fPv36668HBwe7lhATEzN16tQjR460bt1atrY7MhgMv/zyS4cOHTywL0BddG4AAPiGxMTEn376Kf+WPn36lC9fvpixo0ePLnDV5ZQpU4qZiXvTarWLFy9+5JFH1C7kfwQEBHz99dc//PBDTEzMn//0yJEjX3311ejRox966KH27dvHxcU9+uijr7322sKFCxMTE//8/Nq1a2/fvv3999+Xuqb3HgIDA1euXNmqVSt37whQl17tAgAAQGFNnTr1iSeeuP2jTqcbNWpUce5oMhqNzzzzTP4thw4d2rFjx+0fz507N3fu3Lu9vEaNGu3atbv945UrVzZs2HC3J2/bts3lOlVx8+bNn3/+uUgvSUlJKeQzDQbDDz/80KtXr3scMU8KDw9fuXJl/nfzlhs3bnz11Vdz5sy5xy18Wq22bdu248aNe+KJJ3Q6Xf7tb731Vv369QcPHpydne2mym8JDQ1dtWpVly5djh496tYdFckvv/ySmppapJdcvnzZTcUAAADAo44cOZJ/PoOrV6/q9a5/D/vEE08UmCBh5MiRhX95gflLli9f7loZ3jlDyaFDh2Tzb81Qkl9WVpbUmaLizFBSunTpo0ePFqgtLy/vnXfeCQkJKXxO9erVf/311z/PurF79+6wsLB7v9a1GUoKSE5OLtKNefcgMkOJWn+T4a+4WhIAAF8yderU/D/Gxsb26tXL5bRx48bl//HmzZtummMddxQcHLx27Vp1P98HBQX98ssv9evXz7/x8OHDDRs2fO+997Kysgofdf78+YcffnjEiBFmszn/9pYtW86fP1+m3HuKioratGlT1apVPbAvwPPo3AAA8CXfffddRkZG/i0uzzJfp06d/CtoKYoyZ86cnJwc14tD0YWGhq5bt65A4+RJM2bMaNOmTf4tS5cubd269ZkzZ1wLnDNnTocOHfJfOJqbmzt58uTiFFl4sbGx69atq1Chgmd2B3gSnRsAAL4kKyurwIVk3bt3z79kcOGNHj06/49Op7PACT14RlRU1Jo1a6Qu8yuSESNGFFiiYOHChU8++WReXl5xYvfu3fvII4/c+oohNzfXw7fzVa9efe3atWXKlPHYHgHPoHMDAMDHTJs2Lf+PGo2mQA9WGEFBQQVu3fntt9/OnTtXzNrgmtjY2N9//93DZ4rKli372Wef5d/y+++/jxgxwm63Fz98z549w4cPz8nJUWUWljp16vz+++/3vbkO8C10bgAA+JhTp06tX78+/5YRI0aYTKYihTz55JMFPteyGICHHTt2LP+PlSpV2rRpU3R0tMcK+PDDD8PDw2//mJiY+NRTT1ksFqn8ZcuW1a1b12NtW4Hj2aBBg7Vr14aGhnpm74AH0LkBAOB7CnRZUVFRAwYMKFJCgbvjLl68+OuvvwpUhkJ78skn9+zZk39L9erV169f75nL/CpVqlTgpOtzzz0nvgL7pUuXZAPvIS4u7uzZs/m3tGzZcvny5UFBQR6rAXArOjcAAHzPL7/8cuXKlfxbxowZU/iXN2vWrEWLFvm3TJ061eFwyBSHwsnJyenRo8fBgwfzb6xfv/6qVas8cJnfq6++mn/ttY0bNy5btszdO3Wr5OTkuLi4Cxcu5N/YpUuXpUuXGo1GtaoCBNG5AQDge+x2+9dff51/S/v27Qs/P2GBNs9sNn/77bdixaHQ0tPTH3zwwQKX+bVo0eLXX39165kio9FYYGKS999/332785irV68++OCD8fHx+Tc+9NBDS5Ysyd+mAj6Kzg0AAJ80a9asArckFfK0W2ho6FNPPZV/y6JFi27cuCFZHAotOTn5oYceOn/+fP6Nbdu2XblyZVHvXSy8Bx98MDIy8vaPp0+f3rhxo5v25WHnzp3r1q1b/jUJFEXp27fvvHnzaN7g6+jcAADwSdevX//hhx/ybxk6dGhwcPB9Xzhs2LAC53OYm0Rd8fHxXbp0KXCmqEuXLj/88IObLvPr3r17/h/9bPn1U6dOxcXFpaen59/41FNPTZkyRaPRqFUVUHx6tQsAAAAu+uqrr/Jf81aqVKmnnnpq5syZ935VgSUE9uzZs2/fPrfU5+PCwsL69etXpJfk5OSsXbvWhX1duXKlc+fOW7dujYmJub2xd+/e8+bNGzRokMg0/fl17tw5/48Fpir1A0ePHn3wwQcLzC05evTo3Nzcv/71rx4ro0uXLlWqVCnSS3bv3p2YmOiecgAAAKCeAwcOOPM5cODAvZ/foUMH5/8aNmyYy3sfPnx4/qjly5e7lnPx4sX8OY0bN3a5pOJwFtvFixfvkZ+Wlpb/yX/+TN+gQYPk5OQCmXPmzCnMmaLJkyfnf9W77757t2fq9XqLxXL7mXa73X2XZRbe+PHjC4z6vi8pcKD+/IQuXbrk5OQUeNo//vGPwtSzfPny/K8qMA/nHRV4C1xT1C8LUKJwtSQAAD7sq6++yv9jkyZNWrZseY/nF1gMICUlZfHixW6pDEV39OjRnj17ZmRk5N84bNiwqVOnCu6lSpUqBoPh9o+XLl0ym82C+d5j48aN/fv3t1qt+Tf+3//939/+9je1SgKKg84NAAAftmjRops3b+bfMm7cuLs9uWzZso899lj+Ld98842/fmr3Ufv27XvooYdyc3PzbxwzZszHH38stYsC68UV+PvjZ3777bcBAwYUWPHio48+eu6559QqCXAZnRsAAD4sNze3wIT+TzzxRERExB2fPHz48PwzXjgcjgJLC8Ab7Ny5s1evXnl5efk3Tpgw4e233xbJDwkJyf9jdna2SKzX+vnnn4cOHVqgefvqq6+efvpptUoCXMMMJQAA+LZp06a9/PLLt2+FCgwMHDZs2OTJkws8TavVFlg2YOXKlfe+L6uEO3bsWIcOHYr0EqnVzDds2PDkk0/++OOP+S9rnDhxYk5OzqRJk4oZrtX+zxf3Lq/6HR4e7sL5uqpVq3r+b92CBQuCg4OnT5+ef+PMmTPz8vLcOq9mx44djx49WqSX+H0jjeKgcwMAwLedP39+9erVDz/88O0tY8aM+fzzzwvM2dCjR4+qVavm3yJ795T/sdvtaWlpau39559/Hjx48KJFi/I3Wp9++mlOTs60adOKk1ygN6hYsWJx0opKratzZ8yYERgYmP8bDa1WO2fOnKysrJ9//tlNO83MzFTxrxD8D1dLAgDg8wr0YLVr1+7UqVOB5xQ44Xb27FnX5q+HxyxZsmTEiBEFNk6ZMiX/UhAuKLDqekRERHR0dHECi6TALXye9Pnnn//f//1f/i0Gg+HHH3/s2rWrWiUBRcI5NwAAfN7q1asvXLhQrVq121vGjRu3adOm2z9WrFixV69e+V8yderUO06kDq8yb9684ODg/J25RqOZN29ebm7uTz/95FrmhQsXnE5n/pUGOnTo8OOPPxY1x2KxzJ079x5PqFGjRrt27fJvcTqd6p6D+uijj8LCwiZMmHB7i8Fg+OWXXx588MGtW7eqWBhQGHRuAAD4PIfDMW3atH/961+3t/Tr1y8mJubatWu3fhw5cqROp7v9pzk5OYVZLwveYNq0aaGhofnnltRqtYsXL+7fv/+qVatcCDSbzX/88Uf+Pr9Pnz4udG45OTn3XuXsr3/9a4HOLSEhoah7Efe3v/0tODj4+eefv70lMDBw5cqVPXr02L17t4qFAffF1ZIAAPiDb7/9Nv9shAaD4fbUeXq9/tlnn83/5O+++47bb3zIJ598MnHixPxbDAbDDz/8EBcX51rgjh078v/Yv3//AhNOisjfHN5y/vx58b244MUXX/zmm2/ybwkNDV21alWDBg3UKgkoDDo3AAD8QWpqaoE1tUePHn1rcos+ffqUK1cu/x8xN4nPeeeddz799NP8WwIDA3/++edWrVq5kJb/SlpFUUJCQtwxRX7btm0LbNm7d6/4XlzgdDpHjx5dYFbJ0qVLb9iwoUaNGmpVBdwXnRsAAH7iyy+/zP9jpUqVbk04OXbs2Pzbt23bdvjwYY9WBgmvv/56gfX3goOD165d27hx46JGLVu2zGaz5d8yYcKE4ODgYlaYX7Vq1Zo2bVpgY4FzfSqy2+3Dhw//5Zdf8m+MioratGlTgSlYAe9B5wYAgJ84cOBAgRt1Ro8eXaNGjW7duuXfOGXKFM/WBRlOp3PcuHELFizIvzE0NHTdunX169cvUlRqamqBmUXLly//1ltvCVT5/7300ksFtpjNZq+aztRqtQ4YMGD9+vX5N8bGxq5bt65ChQpqVQXcA50bAAD+o0BX9sgjj3z44Yf5tyQlJbk8JyFU53Q6hw0btnTp0vwbo6Ki1qxZU7169SJF/Xmt9tdff71NmzbFrPCWGjVqFFiFQlGUNWvWZGVlieRLsVgsffv23bJlS/6N1atXX7t2bVRUlFpVAXdD5wYAgP9YsmRJcnLy7R81Gs3jjz+e/wkzZsywWCwerwti7Hb7U089tXLlyvwbY2NjC6z6cF/r1q07ePBg/i1arXbp0qXly5cvZoV6vX7u3LlGo7HAdu+8uzInJ6dPnz579uzJv7FOnToFZsUEvAGdGwAA/sNsNheYNC8/u90+ffp0T9YDd7BYLE8++eTGjRuLmfPyyy8X2FKuXLnffvutTJkyxYn98ssv/zw3yZEjR9atW1ecWPdJT0/v2bPnsWPH1C4EuA86NwAA/Mq0adMcDscd/2j58uXx8fEergfukJOT06tXrwJniopq06ZNBeZXVBSlfv36mzdvLuq1l7dotdovv/zyz9dJKoryt7/9zZtXfk9NTY2Lizt79qzahQD3QucGAIBfuXz5coEZ825jbhJ/kpOT06NHjwJXPBbVc889d+XKlQIb69Sps2fPngEDBhQpqnTp0itWrMi/wvVty5cvX716tetVekRycnJcXNyFCxfULgS4Kzo3AAD8zR07tBMnThT/+jp4lfT09AcffLA4l/mlpaUNGDAgNze3wPbIyMgffvhh+fLldevWvW+IVqsdNmzY8ePH73ivXVJS0qhRo1yu0JOuXr364IMPcl4aXkuvdgEAAEDY+vXrT58+Xbt27fwbvXN+CG8WFhbWr1+/Ir0kJyfHwxPfJycnP/TQQy5f36goyp49ewYPHvzDDz/cWrc9v759+/bp02fNmjVz5sxZu3ZtWlpagSeUL1/+iSeeGDduXM2aNe8Ybjab+/Xrl3/WHC937ty5bt26bd26VWRuyS5dulSpUqVIL9m9e3diYmLxdw2/ROcGAIC/cTqd06ZNyz/te2Zm5rx589SrqGhee+21wnzWHz9+vFvLqFKlyrJly4r0kkuXLhX1k3rxxcfHd+nSZefOnbGxsa4l/PTTT4899tiSJUsMBkOBP9JoND179uzZs6fdbj9z5szp06dv3rxps9mioqLq169/t4btFqvV+sQTT+zatcu1qtRy6tSpuLi4rVu3hoWFFTPqs88+K+pL+vfvv3z58mLuF/6Kzg0AAD80Z86cf/zjH8HBwbd+nDdvXmZmprolFd5TTz1VmKe5u3PzIVeuXOncufPWrVtjYmJcS1i+fHn37t2///776OjoOz5Bp9PVqVOnTp06hQzMyMgYOHDgr7/+6lo96jp69OiDDz64du3a0NBQtWsB/ov73AAA8EPp6enffffd7R+5VNLvnTt3rkePHikpKS4nbN68uWnTpmvWrCl+MUeOHGnRooWPtm237N69u1+/fn++AxBQEZ0bAAD+6Xa3tnHjxhMnTqhbDDzg6NGjPXv2zMjIcDkhISGhZ8+eAwcOPH/+vGsJ6enpf/vb35o1a3bmzBmXy/ASGzdu7N+/v9VqVbsQ4D+4WhIAAP905MiRLVu2dOzY8auvvnLTLq5du7Z58+bbP/r6Wsb5x+Kaa9eu3eNPt23bFhIScvvHvLy8Yu7uz/bt2/fQQw/9/vvvxQlZvHjxjz/++NRTT40ZM6ZNmzaFfNWVK1dmzZr1xRdf/Hkik8K4evVq/uN/6tSp+76k+O/Xff32228DBgwo5O2O586dK35JxTlrCr+nUbsAAADgLk8++eSkSZOqVKlis9nUruVexo8fHx4eXtRXvfvuu/Kl+IW4uLgWLVp88sknxY+qVavWQw89FBcX16hRo8qVK2s0//PRMTU19dixY1u3bl23bt3WrVvvtgS8rxs0aJBWq50/f77ahQAAAMBPGQyGp59+Wu0qoILAwEDxzICAgMqVK9evX79x48ZVqlSJiIgQ34XXMhqNapcAAAAAAAAAAAAAAAAAAAAAAAAAAAAAAAAAAAAAAAAAAAAAAAAAAAAAAAAAAAAAAAAAAAAAAAAAAAAAAAAAAAAAAAAAAAAAAAAAAAAAAAAAAAAAAAAAAAAAAAAAAAAAAAAAAAAAAAAAAAAAAAAAAAAAAAAAAAAAAAAAAAAAAAAAAAAAAAAAAAAAAAAAAAAAAAAAAAAAAAAAAAAAAAAAAAAAAAAAAAAAAAAAAAAAAAAAAAAAAAAAAAAAAAAAAAAAAAAAAAAAAAAAAAAAAAAAAAAAAAAAAAAAAAAAAAAAAAAAAAAAAAAAAAAAAAAAAAAAAAAAAAAAAAAAAAAAAAAAAAAAAAAAAAAAAAAAAAAAAAAAAAAAAAAAAAAAAAAAAAAAAAAAAAAAAAAAAAAAAAAAAAAAAAAAAAAAAAAAAAAAAAAAAAAAAAAAAAAAAAAAAAAAAAAAAAAAAAAAAAAAAAAAAAAAAAAAAAAAAAAAAAAAAAAAAAAAAAAAAAAAAAAAAAAAAAAAAAAAAAAAAAAAAAAAAAAAAAAAAAAAAAAAAAAAAAAAAAAAAAAAAAAAAAAAAAAAAAAAAAAAAAAAAAAAAAAAlFD/DxomsLhuwMN2AAAAAElFTkSuQmCC;" parent="1" vertex="1">
                    <mxGeometry x="219.5" y="157.5" width="218" height="100" as="geometry"/>
                </mxCell>
                <mxCell id="6" value="&lt;font style=&quot;font-size: 20px;&quot;&gt;&lt;b&gt;Notebook&lt;/b&gt;&lt;/font&gt;" style="text;strokeColor=none;align=center;fillColor=none;html=1;verticalAlign=middle;whiteSpace=wrap;rounded=0;strokeWidth=2;direction=east;flipH=1;flipV=1;glass=0;horizontal=1;arcSize=0;shadow=0;rotation=315;" parent="1" vertex="1">
                    <mxGeometry x="140" y="70" width="160" height="60" as="geometry"/>
                </mxCell>
                <mxCell id="7" value="&lt;font style=&quot;font-size: 20px;&quot;&gt;&lt;b&gt;API&lt;/b&gt;&lt;/font&gt;" style="text;strokeColor=none;align=center;fillColor=none;html=1;verticalAlign=middle;whiteSpace=wrap;rounded=0;strokeWidth=2;direction=east;flipH=1;flipV=1;glass=0;horizontal=1;arcSize=0;shadow=0;rotation=135;" parent="1" vertex="1">
                    <mxGeometry x="360" y="290" width="160" height="60" as="geometry"/>
                </mxCell>
                <mxCell id="8" value="&lt;font style=&quot;font-size: 20px;&quot;&gt;&lt;b&gt;Lab&lt;/b&gt;&lt;/font&gt;" style="text;strokeColor=none;align=center;fillColor=none;html=1;verticalAlign=middle;whiteSpace=wrap;rounded=0;strokeWidth=2;direction=east;flipH=1;flipV=1;glass=0;horizontal=1;arcSize=0;shadow=0;rotation=45;" parent="1" vertex="1">
                    <mxGeometry x="360" y="70" width="160" height="60" as="geometry"/>
                </mxCell>
            </root>
        </mxGraphModel>
    </diagram>
</mxfile>